<?xml version="1.0" encoding="UTF-8"?>
<svg width="28px" height="24px" viewBox="0 0 28 24" version="1.1" xmlns="http://www.w3.org/2000/svg" xmlns:xlink="http://www.w3.org/1999/xlink">
    <title>E0BEB8E3-6B5E-4E60-B29C-9C3A0C0C6BAF</title>
    <g id="Android-" stroke="none" stroke-width="1" fill="none" fill-rule="evenodd" stroke-linecap="round">
        <g id="UI-KIT" transform="translate(-99.000000, -184.000000)">
            <g id="Asso-Icon" transform="translate(100.000000, 185.000000)">
                <path d="M15.6717226,7 C15.6717226,7 21.2968581,12.7701711 21.5352113,13.0146699 C22.1549296,13.6503667 22.1549296,14.6772616 21.5352113,15.3129584 C20.915493,15.9486553 19.9144095,15.9486553 19.2946912,15.3129584 C19.9144095,15.9486553 19.9144095,16.9755501 19.2946912,17.6112469 C18.6749729,18.2469438 17.6738895,18.2469438 17.0541712,17.6112469 C17.0065005,17.5623472 16.8634886,17.4156479 16.7204767,17.2689487 C17.340195,17.9046455 17.340195,18.9315403 16.7204767,19.5672372 C16.1007584,20.202934 15.099675,20.202934 14.4799567,19.5672372 C14.432286,19.5183374 14.2892741,19.3716381 14.1462622,19.2249389 C14.7659805,19.8606357 14.7659805,20.8875306 14.1462622,21.5232274 C13.5265439,22.1589242 12.5254605,22.1589242 11.9057421,21.5232274 C11.6673889,21.2787286 11,20.594132 11,20.594132 C9.14695987,16.0798151 7.64695987,13.2151044 6.5,12 C5.42473765,10.8608529 3.59140431,10.1941862 1,10 L0,2 L10.2571585,3.49610424" id="Path" stroke="#2FD266" fill="#3AD06B" stroke-linejoin="round"></path>
                <path d="M9.35173514,19.7240849 L9.35173514,19.7240849 C9.86761333,20.2474898 10.6648796,20.2474898 11.1807578,19.7240849 L11.649738,19.2482622 C12.1656162,18.7248572 12.1656162,17.9159587 11.649738,17.3925537 L11.649738,17.3925537 C11.1338598,16.8691488 10.3365935,16.8691488 9.82071532,17.3925537 L9.35173514,17.8683764 C8.88275495,18.3917814 8.88275495,19.2482622 9.35173514,19.7240849 Z" id="Path" stroke="#3AD06B" fill="#FFFFFF"></path>
                <path d="M7.19573369,17.3279703 L7.19573369,17.3279703 C7.69955048,17.999726 8.47817644,17.999726 8.98199323,17.3279703 L9.4400085,16.7172833 C9.94382529,16.0455276 9.94382529,15.0073596 9.4400085,14.3356039 L9.4400085,14.3356039 C8.9361917,13.6638482 8.15756575,13.6638482 7.65374896,14.3356039 L7.19573369,14.9462909 C6.6919169,15.6180467 6.6919169,16.6562146 7.19573369,17.3279703 Z" id="Path" stroke="#3AD06B" fill="#FFFFFF" transform="translate(8.317871, 15.831787) rotate(14.000000) translate(-8.317871, -15.831787) "></path>
                <path d="M5.3778626,14.4961832 L5.3778626,14.4961832 C5.88167939,15.1679389 6.66030534,15.1679389 7.16412214,14.4961832 L7.6221374,13.8854962 C8.1259542,13.2137405 8.1259542,12.1755725 7.6221374,11.5038168 L7.6221374,11.5038168 C7.11832061,10.8320611 6.33969466,10.8320611 5.83587786,11.5038168 L5.3778626,12.1145038 C4.8740458,12.7862595 4.8740458,13.8244275 5.3778626,14.4961832 Z" id="Path" stroke="#3AD06B" fill="#FFFFFF"></path>
                <path d="M3.3778626,12.4961832 L3.3778626,12.4961832 C3.88167939,13.1679389 4.66030534,13.1679389 5.16412214,12.4961832 L5.6221374,11.8854962 C6.1259542,11.2137405 6.1259542,10.1755725 5.6221374,9.50381679 L5.6221374,9.50381679 C5.11832061,8.83206107 4.33969466,8.83206107 3.83587786,9.50381679 L3.3778626,10.1145038 C2.8740458,10.7862595 2.8740458,11.8244275 3.3778626,12.4961832 Z" id="Path" stroke="#3AD06B" fill="#FFFFFF"></path>
                <path d="M17.2769687,5.47474011 L14.2285975,6.66429683 C12.4464728,7.37803086 10.429858,6.90220817 9.16361154,5.47474011 L9.16361154,5.47474011 C8.88222343,5.1892465 8.97601946,4.71342381 9.35120361,4.570677 L17.8866429,0.335855087 C18.9183993,-0.187549869 20.1377477,-0.0923853317 21.0757081,0.573766431 L21.3101982,0.859260043 C22.0605665,1.382665 22.9516288,1.52541181 23.7957932,1.28750046 L26,0.811677774" id="Path" stroke="#3AD06B" fill="#FFFFFF"></path>
                <polyline id="Path" stroke="#3AD06B" fill="#FFFFFF" points="23.3917989 11 21.5158782 11.2854936 21 11.8088986"></polyline>
                <path d="M15.6717226,7 C15.6717226,7 21.2968581,12.7701711 21.5352113,13.0146699 C22.1549296,13.6503667 22.1549296,14.6772616 21.5352113,15.3129584 C20.915493,15.9486553 19.9144095,15.9486553 19.2946912,15.3129584 C19.9144095,15.9486553 19.9144095,16.9755501 19.2946912,17.6112469 C18.6749729,18.2469438 17.6738895,18.2469438 17.0541712,17.6112469 C17.0065005,17.5623472 16.8634886,17.4156479 16.7204767,17.2689487 C17.340195,17.9046455 17.340195,18.9315403 16.7204767,19.5672372 C16.1007584,20.202934 15.099675,20.202934 14.4799567,19.5672372 C14.432286,19.5183374 14.2892741,19.3716381 14.1462622,19.2249389 C14.7659805,19.8606357 14.7659805,20.8875306 14.1462622,21.5232274 C13.5265439,22.1589242 12.5254605,22.1589242 11.9057421,21.5232274 C11.6673889,21.2787286 11,20.594132 11,20.594132 C9.14695987,16.0798151 7.64695987,13.2151044 6.5,12 C5.42473765,10.8608529 3.59140431,10.1941862 1,10 L0,2 L10.2571585,3.49610424" id="Path" stroke="#2FD266" fill="#3AD06B" stroke-linejoin="round"></path>
                <path d="M9.35173514,19.7240849 L9.35173514,19.7240849 C9.86761333,20.2474898 10.6648796,20.2474898 11.1807578,19.7240849 L11.649738,19.2482622 C12.1656162,18.7248572 12.1656162,17.9159587 11.649738,17.3925537 L11.649738,17.3925537 C11.1338598,16.8691488 10.3365935,16.8691488 9.82071532,17.3925537 L9.35173514,17.8683764 C8.88275495,18.3917814 8.88275495,19.2482622 9.35173514,19.7240849 Z" id="Path" stroke="#3AD06B" fill="#FFFFFF"></path>
                <path d="M7.19573369,17.3279703 L7.19573369,17.3279703 C7.69955048,17.999726 8.47817644,17.999726 8.98199323,17.3279703 L9.4400085,16.7172833 C9.94382529,16.0455276 9.94382529,15.0073596 9.4400085,14.3356039 L9.4400085,14.3356039 C8.9361917,13.6638482 8.15756575,13.6638482 7.65374896,14.3356039 L7.19573369,14.9462909 C6.6919169,15.6180467 6.6919169,16.6562146 7.19573369,17.3279703 Z" id="Path" stroke="#3AD06B" fill="#FFFFFF" transform="translate(8.317871, 15.831787) rotate(14.000000) translate(-8.317871, -15.831787) "></path>
                <path d="M5.3778626,14.4961832 L5.3778626,14.4961832 C5.88167939,15.1679389 6.66030534,15.1679389 7.16412214,14.4961832 L7.6221374,13.8854962 C8.1259542,13.2137405 8.1259542,12.1755725 7.6221374,11.5038168 L7.6221374,11.5038168 C7.11832061,10.8320611 6.33969466,10.8320611 5.83587786,11.5038168 L5.3778626,12.1145038 C4.8740458,12.7862595 4.8740458,13.8244275 5.3778626,14.4961832 Z" id="Path" stroke="#3AD06B" fill="#FFFFFF"></path>
                <path d="M3.3778626,12.4961832 L3.3778626,12.4961832 C3.88167939,13.1679389 4.66030534,13.1679389 5.16412214,12.4961832 L5.6221374,11.8854962 C6.1259542,11.2137405 6.1259542,10.1755725 5.6221374,9.50381679 L5.6221374,9.50381679 C5.11832061,8.83206107 4.33969466,8.83206107 3.83587786,9.50381679 L3.3778626,10.1145038 C2.8740458,10.7862595 2.8740458,11.8244275 3.3778626,12.4961832 Z" id="Path" stroke="#3AD06B" fill="#FFFFFF"></path>
                <path d="M17.2769687,5.47474011 L14.2285975,6.66429683 C12.4464728,7.37803086 10.429858,6.90220817 9.16361154,5.47474011 L9.16361154,5.47474011 C8.88222343,5.1892465 8.97601946,4.71342381 9.35120361,4.570677 L17.8866429,0.335855087 C18.9183993,-0.187549869 20.1377477,-0.0923853317 21.0757081,0.573766431 L21.3101982,0.859260043 C22.0605665,1.382665 22.9516288,1.52541181 23.7957932,1.28750046 L26,0.811677774" id="Path" stroke="#3AD06B" fill="#FFFFFF"></path>
                <polyline id="Path" stroke="#3AD06B" fill="#FFFFFF" points="23.3917989 11 21.5158782 11.2854936 21 11.8088986"></polyline>
            </g>
        </g>
    </g>
</svg>