<?xml version="1.0" encoding="UTF-8"?>
<svg width="84px" height="32px" viewBox="0 0 84 32" version="1.1" xmlns="http://www.w3.org/2000/svg" xmlns:xlink="http://www.w3.org/1999/xlink">
    <title>F7A92396-CF39-47C5-85F1-C1AD074AEFFB</title>
    <defs>
        <polygon id="path-1" points="0.0101270473 0.179282087 14.872623 0.179282087 14.872623 13.960222 0.0101270473 13.960222"></polygon>
    </defs>
    <g id="Android-" stroke="none" stroke-width="1" fill="none" fill-rule="evenodd">
        <g id="2.1.1-Home-Page-" transform="translate(-21.000000, -28.000000)">
            <g id="Group-24" transform="translate(21.000000, 28.000000)">
                <path d="M44.4659196,5.37997831 C44.5753092,6.6416983 44.6771709,7.90437106 44.7987933,9.16513826 C44.8321983,9.51314145 44.8550172,9.9173587 45.2605822,10.0476515 C45.623097,10.1641289 45.805413,9.81207643 46.0514808,9.6348592 C47.0376341,8.92384652 47.9438035,8.12660718 48.7683424,7.22313278 C49.3315225,6.60620721 51.6519938,6.66408864 52.2443444,7.25671831 C52.6866078,7.69928499 52.3276217,7.91913916 52.005334,8.18663237 C50.3727234,9.54172487 48.9141952,11.085468 47.4711933,12.6363569 C46.6017223,13.5712731 46.7635719,13.9126068 47.6991472,14.7436699 C49.5455968,16.383882 51.2294911,18.1994059 52.6811971,20.2083442 C53.3314184,21.1077693 52.9514953,21.5813013 51.8644213,21.7256476 C50.346611,21.927399 49.2416583,21.4245689 48.2853814,20.2416915 C47.4714286,19.2346022 46.5139754,18.3451813 45.6019248,17.4219367 C45.3963194,17.2137541 45.1754229,16.9026712 44.8065565,17.0772683 C44.4536867,17.2444813 44.4986188,17.6060616 44.5049705,17.9111897 C44.5263779,18.9411457 44.5786026,19.970149 44.6080084,20.9998668 C44.6298863,21.763997 44.4809753,22.1870317 43.5174057,21.9195385 C41.3067946,21.3059477 41.4183014,21.3543013 41.4063038,18.9945014 C41.3785448,13.6939436 41.6519012,8.38147605 41.0167357,3.0975919 C40.9332232,2.40396747 41.1576483,2.13385411 41.79399,2.0945519 C42.0671112,2.07764004 42.3388209,2.03381213 42.6121773,2.01832944 C44.3311233,1.92019302 44.57131,2.16815422 44.5209672,3.9512835 C44.5077934,4.42600653 44.5190853,4.90144415 44.5190853,5.37664358 C44.5014418,5.37783456 44.483563,5.37878734 44.4659196,5.37997831" id="Fill-1" fill="#3AD06B"></path>
                <path d="M26.5410316,12.9706008 C26.4243179,13.9024298 26.933503,14.8750741 27.5136461,15.780409 C29.0265203,18.1407721 32.5773583,18.0665408 34.0006786,15.6811158 C34.5247893,14.8025136 34.6733119,13.8114906 34.8754199,12.8405171 C35.1112942,11.7067599 34.8585368,10.613102 34.3860542,9.59081105 C33.9996999,8.75493368 33.0447026,8.97810482 32.3392819,8.74705705 C29.3773956,7.77751567 26.5119144,9.76815454 26.5410316,12.9706008 M37.9733499,12.2497699 C38.0778295,14.3652414 37.3036528,16.1899937 36.3356873,17.9531651 C36.0205358,18.5272042 35.4533609,18.9234225 34.8634305,19.1399105 C32.5717306,19.9812776 30.1464339,20.2851245 27.8006591,19.6896037 C25.1715416,19.0222384 23.8752117,17.0313609 23.2258233,14.4862551 C22.1516654,10.2777485 25.0235084,6.16519366 29.4202151,6.00837715 C31.1134206,5.94775098 32.7371362,6.22653589 34.3777349,6.51057189 C36.2319418,6.8313655 38.256448,10.0758204 37.9733499,12.2497699" id="Fill-3" fill="#3AD06B"></path>
                <path d="M60.7178559,11.1780749 C60.7185753,11.1961878 60.7195345,11.2140654 60.7204937,11.2321783 C61.5549992,11.2321783 62.3902241,11.2528788 63.2235306,11.2225338 C63.5877874,11.2093608 64.1143891,11.4015456 64.2513152,10.9023825 C64.366899,10.4808461 63.9381358,10.2082118 63.6508549,9.95910074 C62.6348205,9.07886121 61.310163,9.05980739 60.0792674,8.82810351 C58.9176741,8.60957264 57.8229852,9.42488803 57.4954178,10.5577671 C57.3258789,11.1432605 57.5158008,11.3794338 58.1025925,11.3472069 C58.9747466,11.2989843 59.8461814,11.2352363 60.7178559,11.1780749 M61.5813773,6.02131089 C65.0438556,5.67222605 68.1715725,9.67846852 67.9926814,13.1450879 C67.9463999,14.0432051 67.3555317,14.0808423 66.6517174,14.0368538 C63.9050434,13.864899 61.1583693,13.6602468 58.4028226,13.7517522 C57.914589,13.7679832 57.2642502,13.5186369 57.0016687,14.1060122 C56.7417251,14.6884475 57.0680935,15.2384208 57.4337891,15.7284098 C59.1159891,17.9842882 61.3456534,18.5530801 63.4148913,17.2482461 C64.0757813,16.8311791 64.5529841,16.2727375 64.7599319,15.5174064 C65.1083619,14.2457402 66.0315935,14.9410871 66.7167034,15.008834 C67.5303462,15.0892835 67.4154818,15.6874794 67.2773568,16.2612111 C66.8497926,18.0350984 64.5800816,19.654438 62.1863937,19.9350702 C59.1675462,20.2886245 56.7470007,19.1886779 54.9847074,16.8706982 C53.6715602,15.1433869 53.8741916,13.0994529 54.4290898,11.1305579 C54.6494664,10.3484103 55.0585659,9.61425008 55.4122715,8.87209196 C56.4575616,6.67713873 58.5121716,6.25325 60.6679774,6.02530984 C60.9442275,5.99614103 61.2264726,6.02131089 61.5813773,6.02131089" id="Fill-5" fill="#3AD06B"></path>
                <path d="M7.07230369,20.8323343 C6.27120974,20.656806 5.32857084,21.3586814 4.74335015,20.7390998 C4.14482377,20.105961 4.80941975,19.165291 4.80460217,18.3475859 C4.78372601,14.8284571 4.81561377,11.3093284 4.41391976,7.80613511 C4.40497283,7.72764684 4.38891425,7.64939641 4.38662016,7.57090814 C4.32697399,5.56041913 4.1897878,5.44292457 2.24509323,5.7554506 C1.94410948,5.80373278 1.64289632,5.85439339 1.34443606,5.9176597 C0.576606319,6.08034448 0.193035561,5.79707317 0.176059344,4.94797276 C0.162524251,4.27844401 0.0400201933,3.61200722 0.00354426593,2.94200278 C-0.0292611278,2.34739465 0.158853718,1.91142797 0.853731604,2.01536547 C3.65916629,2.43563449 6.48524773,2.00228409 9.2957294,2.23655969 C9.84676826,2.28246344 10.5524283,2.02939822 10.7806896,2.76980426 C11.0346447,3.59393113 11.0995672,4.51295745 10.8056952,5.32233804 C10.6256096,5.81847906 9.98326622,5.57611679 9.54647273,5.5723113 C8.02893651,5.55899207 7.7538759,5.77424022 7.93671435,7.31950782 C8.25742722,10.0290181 8.3969075,12.7508963 8.52239386,15.4718231 C8.59259282,16.995447 8.45150668,18.5150275 8.6361804,20.0555383 C8.79768388,21.4014932 7.62586604,20.6206538 7.07230369,20.8323343" id="Fill-7" fill="#3AD06B"></path>
                <g id="Group-11" transform="translate(69.000000, 6.000000)">
                    <mask id="mask-2" fill="white">
                        <use xlink:href="#path-1"></use>
                    </mask>
                    <g id="Clip-10"></g>
                    <path d="M11.881623,5.94900339 C11.7008852,5.11849492 11.9487541,3.84805424 10.8385082,3.27334237 C9.97834426,2.82818983 8.91211475,2.63907119 7.92063934,2.57239322 C6.30260656,2.46324068 4.20432787,3.75764746 3.72457377,5.14696949 C3.09014754,6.98334237 3.26301639,8.85696949 4.76842623,10.1848339 C7.24981967,12.3733424 9.93506557,12.193478 11.2853115,9.02544407 C11.6706393,8.12185085 11.8754754,7.14018983 11.881623,5.94900339 M14.8703115,5.78242712 C14.9224426,8.50744407 14.1067869,10.3369356 13.069082,12.1068678 C12.7875246,12.587139 12.3586721,12.8832746 11.8607213,13.0503254 C9.75604918,13.7562576 7.57932787,14.2137492 5.36793443,13.8079864 C1.69195082,13.133139 -0.144442623,10.0820881 0.0203114754,6.49096949 C0.248508197,1.52263051 4.1337541,-0.260827119 8.77047541,0.269037288 C9.73686885,0.379376271 10.741623,0.540969492 11.6226885,0.913037288 C14.0785082,1.95022373 14.6384262,4.11025763 14.8703115,5.78242712" id="Fill-9" fill="#3AD06B" mask="url(#mask-2)"></path>
                </g>
                <path d="M14.2054544,13.3058115 C14.0544177,11.1981564 14.133067,9.09003171 14.0043226,6.98167212 C13.964497,6.32570149 14.1936821,5.99924278 14.949617,6.2045125 C15.8929075,6.4605125 17.0633793,5.83436939 17.8193142,6.88584827 C17.9573262,7.0779657 18.3044852,6.89242442 18.5023608,6.76724277 C19.4093324,6.19300424 20.4623312,6.15660058 21.4887796,6.02578223 C22.4400854,5.90435838 23.0369684,6.19770149 22.9948885,7.20760973 C22.9803609,7.55849413 22.9841181,7.9107877 22.9966418,8.26214182 C23.0282017,9.15250511 22.8568765,9.60297115 21.6378125,9.41954364 C20.1467321,9.19525006 19.1666217,10.2972244 18.7075002,11.3865161 C17.602653,14.0066408 16.9426502,16.7348022 18.0254555,19.5505673 C18.0670345,19.6588389 18.1444314,19.8072719 18.1003477,19.8845416 C17.4779162,20.9782957 16.225038,20.6823691 15.2479333,20.9559838 C14.5050231,21.1640719 14.214722,20.6004021 14.2107144,19.9787214 C14.1969383,17.7543398 14.2054544,15.5301931 14.2054544,13.3058115" id="Fill-12" fill="#3AD06B"></path>
                <path d="M64,0.559947957 C63.9623257,0.986972307 63.7228585,1.2523219 63.4487781,1.48190489 C62.7247253,2.0877623 62.0206871,2.70715302 61.4819448,3.50706847 C61.1920882,3.93747615 60.8087523,4.20403407 60.3039169,3.80165969 C59.7795379,3.38381866 60.0312492,2.98603593 60.3314662,2.57012823 C60.8403045,1.86591264 61.3220645,1.14139707 61.8257226,0.433314817 C62.176329,-0.0596844321 63.4979901,-0.159009281 63.8594278,0.27574839 C63.9312444,0.361781593 63.9630321,0.482614742 64,0.559947957" id="Fill-14" fill="#3AD06B"></path>
                <path d="M29,22 C29,22 38.8077199,31 54.4998802,31 C70.1922801,31 80,22 80,22" id="Stroke-22" stroke="#3AD06B" stroke-width="2"></path>
            </g>
        </g>
    </g>
</svg>