<?xml version="1.0" encoding="UTF-8"?>
<svg width="266px" height="101px" viewBox="0 0 266 101" version="1.1" xmlns="http://www.w3.org/2000/svg" xmlns:xlink="http://www.w3.org/1999/xlink">
    <title>CA5A3CBD-5FA5-4EA2-A20F-541DCB3E086F</title>
    <g id="Android-" stroke="none" stroke-width="1" fill="none" fill-rule="evenodd">
        <g id="UI-KIT" transform="translate(-914.000000, -180.000000)">
            <g id="Group-24" transform="translate(914.000000, 180.000000)">
                <path d="M139.975412,14.8159306 C140.321812,18.8534345 140.644374,22.8939874 141.029512,26.9284424 C141.135295,28.0420526 141.207555,29.3355479 142.491844,29.7524847 C143.639807,30.1252126 144.217141,28.9986446 144.996356,28.4315494 C148.119175,26.1563089 150.988711,23.605143 153.599751,20.7140249 C155.383155,18.7398631 162.731314,18.9250837 164.607091,20.8214986 C166.007591,22.237712 164.870802,22.9412453 163.850224,23.7972236 C158.680291,28.1335196 154.061618,33.0734975 149.492112,38.0363422 C146.738787,41.0280739 147.251311,42.1203418 150.213966,44.7797436 C156.061056,50.0284225 161.393388,55.8380987 165.990458,62.2667014 C168.049492,65.1448616 166.846402,66.6601642 163.404001,67.1220724 C158.597602,67.7676766 155.098585,66.1586204 152.070374,62.3734128 C149.492857,59.150727 146.460922,56.3045802 143.572762,53.3501975 C142.921678,52.6840132 142.222173,51.6885478 141.054095,52.2472584 C139.936675,52.7823401 140.07896,53.9393971 140.099073,54.9158069 C140.166863,58.2116663 140.332242,61.5044767 140.42536,64.7995739 C140.49464,67.2447905 140.023089,68.5985015 136.971785,67.7425232 C129.971516,65.7790325 130.324621,65.9337641 130.286629,58.3824046 C130.198725,41.4206196 131.064354,24.4207233 129.052996,7.51229406 C128.78854,5.2926959 129.49922,4.42833315 131.514302,4.30256609 C132.379185,4.24844814 133.239599,4.1081988 134.105228,4.0586542 C139.548557,3.74461765 140.309148,4.5380935 140.14973,10.2441072 C140.108013,11.7632209 140.14377,13.2846213 140.14377,14.8052595 C140.087899,14.8090706 140.031283,14.8121195 139.975412,14.8159306" id="Fill-1" fill="#FFFFFF"></path>
                <path d="M86.0952325,42.4055025 C85.7295294,45.4006673 87.324976,48.5270239 89.1427577,51.437029 C93.8830971,59.0239102 105.009056,58.7853097 109.468793,51.1178721 C111.111007,48.2937939 111.576377,45.1083625 112.209649,41.9873763 C112.948722,38.3431569 112.156749,34.8278278 110.676303,31.5418927 C109.465726,28.855144 106.473401,29.5724798 104.263083,28.8298262 C94.9825062,25.7134432 86.0039984,32.1119253 86.0952325,42.4055025 M121.916496,40.0885462 C122.243866,46.888276 119.818112,52.7535512 116.785154,58.4208878 C115.797679,60.2660136 114.020531,61.5395724 112.172082,62.2354265 C104.991423,64.9398209 97.3921595,65.9164717 90.0420652,64.0022975 C81.8041635,61.8571949 77.7423298,55.4579456 75.7075796,47.2772484 C72.3418851,33.749906 81.3403264,20.5309796 95.116674,20.0269265 C100.422051,19.8320567 105.509693,20.7281511 110.650236,21.6411239 C116.460084,22.6722462 122.803537,33.1008514 121.916496,40.0885462" id="Fill-3" fill="#FFFFFF"></path>
                <path d="M191.113261,35.6438121 C191.115522,35.7020321 191.118537,35.759496 191.121552,35.817716 C193.744283,35.817716 196.369276,35.8842532 198.988239,35.7867157 C200.133046,35.7443739 201.78808,36.3621109 202.218419,34.7576581 C202.581683,33.4027197 201.234141,32.5263951 200.331258,31.7256809 C197.138007,28.8963396 192.974798,28.8350952 189.106269,28.0903327 C185.455547,27.3879121 182.015096,30.0085687 180.985599,33.6499657 C180.452762,35.5319087 181.04966,36.2910371 182.893862,36.1874509 C185.634918,36.0324496 188.373713,35.8275454 191.113261,35.6438121 M193.827186,19.0684993 C204.70926,17.9464409 214.539228,30.8236488 213.976999,41.9663541 C213.831543,44.8531593 211.974528,44.9741359 209.762541,44.8327445 C201.130136,44.2800324 192.497732,43.6222219 183.837443,43.9163464 C182.302994,43.9685176 180.259072,43.1670473 179.433816,45.0550391 C178.61685,46.9271527 179.642579,48.6949239 180.791909,50.2698886 C186.078823,57.5209264 193.086339,59.349186 199.589658,55.1550769 C201.666741,53.8145044 203.166522,52.0195134 203.816929,49.5916633 C204.911995,45.5041649 207.81358,47.7392084 209.966782,47.9569664 C212.523945,48.215554 212.162943,50.1383265 211.728836,51.9824643 C210.385062,57.6842449 203.251685,62.8892651 195.728666,63.7912972 C186.240859,64.9277216 178.633431,61.3921791 173.094795,53.9415299 C168.967761,48.3894579 169.604602,41.8196699 171.348568,35.4910791 C172.04118,32.9770331 173.326921,30.6172324 174.438568,28.2317242 C177.723765,21.1765174 184.181111,19.8140179 190.956501,19.0813531 C191.824715,18.9875962 192.711771,19.0684993 193.827186,19.0684993" id="Fill-5" fill="#FFFFFF"></path>
                <path d="M23.7886579,66.4617049 C21.0940691,65.8981666 17.9233746,68.1515562 15.954905,66.1623729 C13.9416799,64.1296644 16.1771392,61.1096184 16.1609346,58.4843546 C16.0907148,47.1860992 16.1979736,35.8878437 14.846821,24.6407496 C14.8167268,24.3887609 14.7627116,24.1375358 14.7549951,23.8855472 C14.5543671,17.4308193 14.0929226,17.0535999 7.55167724,18.056973 C6.53927735,18.2119842 5.52610581,18.3746314 4.52219402,18.5777496 C1.93949398,19.1000533 0.649301434,18.1906033 0.592199611,15.4645441 C0.546672481,13.3150044 0.134613377,11.1753916 0.0119216218,9.0243247 C-0.0984237936,7.11531965 0.534326141,5.71563715 2.87164267,6.04933124 C12.3081048,7.398616 21.8140151,6.00733313 31.2674534,6.75948111 C33.1209478,6.9068563 35.4945317,6.09438376 36.2623197,8.47147684 C37.1165321,11.1173578 37.334908,14.067916 36.3464291,16.6664537 C35.7406868,18.2593275 33.5800773,17.4812171 32.1108628,17.4689994 C27.0064228,17.4262377 26.0812189,18.1172975 26.696221,23.0784198 C27.7749825,31.777374 28.2441434,40.5160355 28.6662339,49.2516426 C28.9023577,54.1432772 28.4277952,59.0219305 29.0489704,63.9677807 C29.5922094,68.2890045 25.6506403,65.7820991 23.7886579,66.4617049" id="Fill-7" fill="#FFFFFF"></path>
                <path d="M256.229085,39.1217966 C255.662774,36.4523051 256.43943,32.3687458 252.960659,30.5214576 C250.265479,29.0906102 246.924626,28.4827288 243.818003,28.2684068 C238.748167,27.9175593 232.173561,32.0781525 230.670331,36.5438305 C228.682462,42.4464576 229.224118,48.4688305 233.941069,52.7369661 C241.716102,59.7714576 250.129872,59.193322 254.360643,49.0103559 C255.568003,46.1059492 256.209823,42.9506102 256.229085,39.1217966 M265.593643,38.5863729 C265.756987,47.3453559 263.201266,53.2258644 259.94979,58.9149322 C259.067577,60.458661 257.723839,61.4105254 256.163593,61.9474746 C249.568954,64.2165424 242.748561,65.6870508 235.819528,64.3828136 C224.301446,62.213661 218.547413,52.4067119 219.063643,40.8638305 C219.778659,24.8941695 231.95243,19.1616271 246.480823,20.8647627 C249.508856,21.2194237 252.657085,21.7388305 255.417757,22.9347627 C263.112659,26.2685763 264.867069,33.2115424 265.593643,38.5863729" id="Fill-9" fill="#FFFFFF"></path>
                <path d="M44.6163633,42.3785967 C44.1632532,35.6341006 44.3992011,28.8881015 44.0129679,22.1413508 C43.8934911,20.0422448 44.5810462,18.9975769 46.848851,19.65444 C49.6787226,20.47364 53.190138,18.469982 55.4579427,21.8347145 C55.8719787,22.4494902 56.9134556,21.8557581 57.5070824,21.4551769 C60.2279972,19.6176136 63.3869936,19.5011218 66.4663389,19.0825031 C69.3202562,18.6939468 71.1109052,19.6326448 70.9846655,22.8643511 C70.9410828,23.9871812 70.9523542,25.1145206 70.9899255,26.2388538 C71.0846052,29.0880163 70.5706296,30.5295077 66.9134375,29.9425396 C62.4401964,29.2248002 59.4998651,32.7511179 58.1225006,36.2368514 C54.8079589,44.6212506 52.8279505,53.3513671 56.0763666,62.3618154 C56.2011034,62.7082844 56.4332941,63.18327 56.3010431,63.4305332 C54.4337486,66.9305463 50.675114,65.9835812 47.7437998,66.8591481 C45.5150692,67.52503 44.644166,65.7212869 44.6321432,63.7319086 C44.5908148,56.6138874 44.6163633,49.4966178 44.6163633,42.3785967" id="Fill-12" fill="#FFFFFF"></path>
                <path d="M202,1.81983086 C201.877559,3.20766 201.09929,4.07004618 200.208529,4.81619088 C197.855357,6.78522747 195.567233,8.79824732 193.81632,11.3979725 C192.874287,12.7967975 191.628445,13.6631107 189.98773,12.355394 C188.283498,10.9974106 189.10156,9.70461677 190.077265,8.35291674 C191.73099,6.06421606 193.29671,3.70954048 194.933599,1.40827316 C196.073069,-0.193974404 200.368468,-0.516780163 201.54314,0.896182269 C201.776544,1.17579018 201.879854,1.56849791 202,1.81983086" id="Fill-14" fill="#FFFFFF"></path>
                <path d="M92,71 C92,71 123.346242,99 173.499617,99 C206.935711,99 234.102505,89.6666667 255,71 L255,71" id="Stroke-22" stroke="#FFFFFF" stroke-width="4"></path>
            </g>
        </g>
    </g>
</svg>