<?xml version="1.0" encoding="UTF-8"?>
<svg width="26px" height="20px" viewBox="0 0 26 20" version="1.1" xmlns="http://www.w3.org/2000/svg" xmlns:xlink="http://www.w3.org/1999/xlink">
    <title>9AE25AD8-C3D3-41F0-8B7D-F8A11A007C96</title>
    <g id="Android-" stroke="none" stroke-width="1" fill="none" fill-rule="evenodd">
        <g id="UI-KIT" transform="translate(-246.000000, -186.000000)" fill-rule="nonzero">
            <g id="icons8-envelope" transform="translate(246.000000, 186.000000)">
                <path d="M24.7,20 L1.3,20 C0.583266667,20 0,19.3590476 0,18.5714286 L0,1.42857143 C0,0.640952381 0.583266667,0 1.3,0 L24.7,0 C25.4167333,0 26,0.640952381 26,1.42857143 L26,18.5714286 C26,19.3590476 25.4167333,20 24.7,20 Z" id="Shape" fill="#3AD06B"></path>
                <path d="M12.9900725,12 C12.6825394,12 12.3785362,11.9295537 12.0948292,11.7905911 L-2.27373675e-13,4.89553679 L-2.27373675e-13,3.85418701 L12.4791352,10.9225573 C12.8007874,11.0793727 13.1965652,11.0788902 13.5416023,10.9085645 L26,3.93615723 L26,4.85452352 L13.9281144,11.7756333 C13.6245524,11.9256936 13.3055475,12 12.9900725,12 Z" id="Shape" fill="#FFFFFF"></path>
            </g>
        </g>
    </g>
</svg>