<?xml version="1.0" encoding="UTF-8"?>
<svg width="9px" height="13px" viewBox="0 0 9 13" version="1.1" xmlns="http://www.w3.org/2000/svg" xmlns:xlink="http://www.w3.org/1999/xlink">
    <title>C67465B7-49DC-440A-B415-81D74D624268</title>
    <g id="Android-" stroke="none" stroke-width="1" fill="none" fill-rule="evenodd">
        <g id="UI-KIT" transform="translate(-32.000000, -119.000000)" fill="#FC3B1B" fill-rule="nonzero">
            <g id="icons8-marker" transform="translate(32.000000, 119.000000)">
                <path d="M4.5,0 C2.01471429,0 0,2.09562019 0,4.68070879 C0,7.33266466 2.83114286,11.2470746 4.00242857,12.7522568 C4.25957143,13.0825811 4.74042857,13.0825811 4.99757143,12.7522568 C6.16885714,11.2470746 9,7.33266466 9,4.68070879 C9,2.09562019 6.98528571,0 4.5,0 Z M4.5,6.3523905 C3.61221429,6.3523905 2.89285714,5.60414577 2.89285714,4.68070879 C2.89285714,3.75727182 3.61221429,3.00902708 4.5,3.00902708 C5.38778571,3.00902708 6.10714286,3.75727182 6.10714286,4.68070879 C6.10714286,5.60414577 5.38778571,6.3523905 4.5,6.3523905 Z" id="Shape"></path>
            </g>
        </g>
    </g>
</svg>