<?xml version="1.0" encoding="UTF-8"?>
<svg width="30px" height="27px" viewBox="0 0 30 27" version="1.1" xmlns="http://www.w3.org/2000/svg" xmlns:xlink="http://www.w3.org/1999/xlink">
    <title>6FB374E7-B14A-422C-A0A5-9E6EAEE0E8D9</title>
    <g id="Android-" stroke="none" stroke-width="1" fill="none" fill-rule="evenodd">
        <g id="UI-KIT" transform="translate(-152.000000, -66.000000)" stroke="#FCFFFF">
            <g id="icons8-share" transform="translate(153.000000, 67.000000)">
                <path d="M4.30769231,8.33333333 C1.92861954,8.33333333 0,10.1988135 0,12.5 C0,14.8011865 1.92861954,16.6666667 4.30769231,16.6666667 C6.68676508,16.6666667 8.61538462,14.8011865 8.61538462,12.5 C8.61538462,10.1988135 6.68676508,8.33333333 4.30769231,8.33333333 Z M23.6923077,0 C21.3132349,0 19.3846154,1.86548021 19.3846154,4.16666667 C19.3846154,6.46785312 21.3132349,8.33333333 23.6923077,8.33333333 C26.0713805,8.33333333 28,6.46785312 28,4.16666667 C28,1.86548021 26.0713805,0 23.6923077,0 Z M23.6923077,16.6666667 C21.3132349,16.6666667 19.3846154,18.5321469 19.3846154,20.8333333 C19.3846154,23.1345198 21.3132349,25 23.6923077,25 C26.0713805,25 28,23.1345198 28,20.8333333 C28,18.5321469 26.0713805,16.6666667 23.6923077,16.6666667 Z M8.35907692,14.2416667 L19.6516923,19.0958333 M19.9230769,5.69166667 L8.07476923,10.8583333" id="Shape"></path>
            </g>
        </g>
    </g>
</svg>