<?xml version="1.0" encoding="UTF-8"?>
<svg width="208px" height="170px" viewBox="0 0 208 170" version="1.1" xmlns="http://www.w3.org/2000/svg" xmlns:xlink="http://www.w3.org/1999/xlink">
    <title>6062C222-3B05-4AE2-B6D8-EC6098B888AC</title>
    <g id="Android-" stroke="none" stroke-width="1" fill="none" fill-rule="evenodd">
        <g id="5.3.4.1-fiche-profil-paramètres-paiements" transform="translate(-83.000000, -247.000000)">
            <g id="Group-51" transform="translate(83.000000, 247.000000)">
                <polygon id="Fill-1" fill="#F3F8FF" points="9.09494702e-13 64 81 64 81 59 9.09494702e-13 59"></polygon>
                <g id="Group-18" transform="translate(22.000000, 96.000000)">
                    <path d="M125.637077,37.015938 L147.742269,37.015938 C148.337269,37.015938 148.824577,36.5302165 148.824577,35.9371532 L148.824577,35.6526975 C148.824577,35.0589633 148.337269,34.5732418 147.742269,34.5732418 L125.637077,34.5732418 C125.041404,34.5732418 124.554769,35.0589633 124.554769,35.6526975 L124.554769,35.9371532 C124.554769,36.5302165 125.041404,37.015938 125.637077,37.015938" id="Fill-2" fill="#F3F8FF"></path>
                    <path d="M153.703846,6.79788734 C153.703846,9.77863418 156.128942,12.1951658 159.119423,12.1951658 C162.109904,12.1951658 164.534327,9.77863418 164.534327,6.79788734 C164.534327,3.81714051 162.109904,1.39993797 159.119423,1.39993797 C156.128942,1.39993797 153.703846,3.81714051 153.703846,6.79788734" id="Fill-4" fill="#F3F8FF"></path>
                    <path d="M145.187875,5.78303797 C145.187875,8.76311392 147.612971,11.1803165 150.603452,11.1803165 C153.593933,11.1803165 156.018356,8.76311392 156.018356,5.78303797 C156.018356,2.80162025 153.593933,0.385088608 150.603452,0.385088608 C147.612971,0.385088608 145.187875,2.80162025 145.187875,5.78303797" id="Fill-6" fill="#F3F8FF"></path>
                    <path d="M118.991788,8.27397089 C118.991788,11.2547177 121.416212,13.6712494 124.406692,13.6712494 C127.397173,13.6712494 129.822269,11.2547177 129.822269,8.27397089 C129.822269,5.29322405 127.397173,2.87602152 124.406692,2.87602152 C121.416212,2.87602152 118.991788,5.29322405 118.991788,8.27397089" id="Fill-8" fill="#F3F8FF"></path>
                    <path d="M132.969308,10.7649038 C132.969308,13.7456506 135.393731,16.1628532 138.384212,16.1628532 C141.374692,16.1628532 143.799788,13.7456506 143.799788,10.7649038 C143.799788,7.78415696 141.374692,5.36762532 138.384212,5.36762532 C135.393731,5.36762532 132.969308,7.78415696 132.969308,10.7649038" id="Fill-10" fill="#F3F8FF"></path>
                    <path d="M174.863702,7.7786557 C174.863702,7.7786557 173.986683,20.2027949 140.35976,20.2027949 C106.732837,20.2027949 105.85649,7.7786557 105.85649,7.7786557 L174.863702,7.7786557 Z" id="Fill-12" fill="#E3EEFF"></path>
                    <path d="M2.61517308,30.2159709 L21.5104615,30.2159709 C22.7893077,30.2159709 23.8359423,29.172743 23.8359423,27.8980595 C23.8359423,26.6233759 22.7893077,25.5801481 21.5104615,25.5801481 L2.61517308,25.5801481 C1.33632692,25.5801481 0.289019231,26.6233759 0.289019231,27.8980595 C0.289019231,29.172743 1.33632692,30.2159709 2.61517308,30.2159709" id="Fill-14" fill="#F3F8FF"></path>
                    <path d="M2.61550962,52.8026924 L21.510125,52.8026924 C22.7889712,52.8026924 23.8356058,51.7594646 23.8356058,50.484781 C23.8356058,49.2100975 22.7889712,48.1668696 21.510125,48.1668696 L2.61550962,48.1668696 C1.33666346,48.1668696 0.290028846,49.2100975 0.290028846,50.484781 C0.290028846,51.7594646 1.33666346,52.8026924 2.61550962,52.8026924" id="Fill-16" fill="#F3F8FF"></path>
                </g>
                <g id="Group-23" transform="translate(9.000000, 148.000000)">
                    <path d="M142.757513,3.01310625 L142.941847,0.21291875 L184.460372,4.40185625 C183.815534,6.15154375 184.246092,4.98966875 183.631865,7.11748125" id="Fill-19" fill="#606060"></path>
                    <polygon id="Fill-21" fill="#00A03F" points="143.533448 12.64615 1.26179317 21.9995875 0.298861511 18.5449 143.533448 9.119275"></polygon>
                </g>
                <polygon id="Fill-24" fill="#606060" points="22 141 166 141 166 2 22 2"></polygon>
                <polygon id="Fill-25" fill="#FFFFFF" points="26 142 163 142 163 6 26 6"></polygon>
                <polygon id="Fill-26" fill="#0F264C" points="165 140.972699 165 143 92 143 107.775552 127.022936 129.500648 105"></polygon>
                <polygon id="Fill-27" fill="#0F264C" points="23 143 23 129.72002 66.8415524 86 124 143"></polygon>
                <g id="Group-50" transform="translate(0.000000, 0.000000)">
                    <path d="M139.636467,47.9259382 C139.636467,60.0726469 129.770467,69.9198909 117.599133,69.9198909 C105.428467,69.9198909 95.5624667,60.0726469 95.5624667,47.9259382 C95.5624667,35.7792295 105.428467,25.9319854 117.599133,25.9319854 C129.770467,25.9319854 139.636467,35.7792295 139.636467,47.9259382" id="Fill-28" fill="#0F264C"></path>
                    <polygon id="Fill-30" fill="#B3AEA9" points="207.824667 13.9671846 194.126 153.964389 50.8686667 140.002594 64.5673333 0.00538937008"></polygon>
                    <polygon id="Fill-32" fill="#FFFFFF" points="203.710733 18.0853287 190.450067 153.60603 54.5540667 140.360821 67.8140667 4.84078543"></polygon>
                    <polygon id="Fill-34" fill="#B3AEA9" points="194.319467 151.989219 194.126133 153.964656 121.9308 146.928533 139.055467 132.88623 162.639467 113.528411"></polygon>
                    <polygon id="Fill-36" fill="#B3AEA9" points="50.8689333 140.002461 52.1856 126.546335 100.9076 86.5725122 153.1256 149.968804"></polygon>
                    <polygon id="Fill-38" fill="#00D65B" points="143.939867 18.6012445 153.1252 158.965059 9.49253333 168.327926 0.3072 27.9641106"></polygon>
                    <polygon id="Fill-40" fill="#FFFFFF" points="140.547933 23.3299177 149.439933 159.205252 13.1872667 168.087067 4.29526667 32.2117327"></polygon>
                    <path d="M120.749133,65.3573567 C121.542467,77.4781165 112.340467,87.9461362 100.195133,88.7379079 C88.0504667,89.5296795 77.5618,80.3451283 76.7684667,68.2243685 C75.9758,56.1029433 85.1778,45.635589 97.3231333,44.8438173 C109.4678,44.0520457 119.956467,53.2365969 120.749133,65.3573567" id="Fill-42" fill="#00D65B"></path>
                    <polygon id="Fill-46" fill="#00D65B" points="152.218533 157.175589 152.347867 159.155683 79.9632 163.873711 94.5845333 147.251164 114.7192 124.338357"></polygon>
                    <polygon id="Fill-48" fill="#00D65B" points="10.0062667 168.626337 9.1236 155.134947 50.7202667 107.817609 112.530933 161.942853"></polygon>
                </g>
            </g>
        </g>
    </g>
</svg>