<?xml version="1.0" encoding="UTF-8"?>
<svg width="165px" height="197px" viewBox="0 0 165 197" version="1.1" xmlns="http://www.w3.org/2000/svg" xmlns:xlink="http://www.w3.org/1999/xlink">
    <title>73A69062-170D-470D-B1C8-B941D99F9E64</title>
    <defs>
        <polygon id="path-1" points="0.000130434783 0.285552475 94.2236087 0.285552475 94.2236087 11.7029703 0.000130434783 11.7029703"></polygon>
        <polygon id="path-3" points="0.000130434783 0.285552475 94.2236087 0.285552475 94.2236087 11.7029703 0.000130434783 11.7029703"></polygon>
        <path d="M0,-1.42108547e-14 L6.07762211,17 L21,17 C19.2128928,13.8705559 11.8126657,-1.42108547e-14 11.8126657,-1.42108547e-14 L0,-1.42108547e-14 Z" id="path-5"></path>
    </defs>
    <g id="Android-" stroke="none" stroke-width="1" fill="none" fill-rule="evenodd">
        <g id="2.1.2-Home-Page_-no-result" transform="translate(-103.000000, -259.000000)">
            <g id="Illus-no-result" transform="translate(103.000000, 259.000000)">
                <g id="Group-83">
                    <g id="Group-45">
                        <g id="Group-3" transform="translate(0.000000, 184.646865)">
                            <mask id="mask-2" fill="white">
                                <use xlink:href="#path-1"></use>
                            </mask>
                            <g id="Clip-2"></g>
                            <path d="M94.2236087,5.99465149 C94.2236087,9.14730165 73.131,11.7031003 47.1118696,11.7031003 C21.0927391,11.7031003 0.000130434783,9.14730165 0.000130434783,5.99465149 C0.000130434783,2.84135116 21.0927391,0.285552475 47.1118696,0.285552475 C73.131,0.285552475 94.2236087,2.84135116 94.2236087,5.99465149" id="Fill-1" fill="#AAFF00" mask="url(#mask-2)"></path>
                        </g>
                        <g id="Group-6" transform="translate(0.000000, 184.646865)">
                            <mask id="mask-4" fill="white">
                                <use xlink:href="#path-3"></use>
                            </mask>
                            <g id="Clip-5"></g>
                            <path d="M94.2236087,5.99465149 C94.2236087,9.14730165 73.131,11.7031003 47.1118696,11.7031003 C21.0927391,11.7031003 0.000130434783,9.14730165 0.000130434783,5.99465149 C0.000130434783,2.84135116 21.0927391,0.285552475 47.1118696,0.285552475 C73.131,0.285552475 94.2236087,2.84135116 94.2236087,5.99465149" id="Fill-4" fill="#FFFFFF" mask="url(#mask-4)"></path>
                        </g>
                        <path d="M56.4956087,2.58193531 C56.4956087,2.58193531 52.851913,-0.272289109 48.6877826,1.1548231 C44.5236522,2.58193531 41.3351739,9.52244686 40.2297391,15.1658792 C39.123,20.8093116 34.7638696,25.089998 35.8047391,31.7060772 C36.8462609,38.3228066 44.3932174,39.36047 53.5027826,40.3331168 C62.6116957,41.3064139 67.5564783,40.203734 71.8510435,34.2358693 C76.1449565,28.2686548 74.3234348,21.0037109 71.7858261,14.582031 C69.2482174,8.16035116 65.0188696,2.19248647 61.5056087,1.09045677 C57.9923478,-0.0122231023 56.4956087,2.58193531 56.4956087,2.58193531" id="Fill-7" fill="#606060"></path>
                        <path d="M30.7426957,127.096143 L29.9307391,139.606618 C29.9307391,139.606618 26.4611739,156.385427 25.3537826,163.303183 C24.2470435,170.220938 22.2533478,180.744509 21.8842174,180.744509 C21.5157391,180.744509 15.5359565,184.350975 13.6166087,187.294272 C11.6972609,190.237569 14.1331304,191.489136 16.7907391,190.532093 C19.4483478,189.575701 23.0659565,186.926278 24.2470435,183.761925 C25.4281304,180.597572 26.0183478,179.420123 26.0920435,178.905192 C26.1657391,178.389612 38.7892174,144.610288 40.044,141.005123 C41.2994348,137.398658 43.9563913,126.801618 43.9563913,126.801618 L50.1572609,105.827945 C50.1572609,105.827945 56.8009565,127.390017 56.8746522,128.34706 C56.949,129.304103 63.740087,184.424443 64.0355217,186.484816 C64.3303043,188.545839 64.2566087,190.017163 65.5120435,190.458625 C66.7668261,190.900087 69.7198696,190.900087 71.270087,190.900087 C72.8203043,190.900087 78.2085652,191.709542 80.8661739,191.047024 C83.5237826,190.385156 83.8192174,189.943694 81.9735652,188.618658 C80.127913,187.294272 69.8757391,186.445806 68.907913,182.584476 C68.8335652,182.289951 68.7598696,125.550701 68.7598696,125.550701 C68.7598696,125.550701 67.8742174,106.784338 66.3976957,101.485493 L32.292913,101.485493 L30.7426957,127.096143 Z" id="Fill-11" fill="#DD5737"></path>
                        <path d="M16.791,190.532288 C19.4486087,189.575246 23.0655652,186.926473 24.2466522,183.76212 C24.3327391,183.529361 24.4155652,183.312206 24.4957826,183.100902 C22.989913,184.700308 20.5553478,186.926473 20.5553478,186.926473 C20.5553478,186.926473 20.3342609,185.674906 19.596,184.86545 C18.8577391,184.055995 17.8983913,184.350519 17.8983913,184.350519 L20.4790435,181.492394 C18.4990435,182.702351 15.0014348,185.170378 13.6168696,187.294467 C11.6975217,190.237764 14.1333913,191.489331 16.791,190.532288" id="Fill-15" fill="#606060"></path>
                        <path d="M81.9736957,188.618658 C80.7104348,187.711678 75.5093478,187.028354 72.0423913,185.448453 C71.9015217,185.574585 71.7821739,185.722823 71.7130435,185.896417 C71.4169565,186.631753 71.1958696,187.809202 71.1958696,187.809202 L64.0082609,186.281315 C64.0193478,186.368437 64.0291304,186.441905 64.0356522,186.484816 C64.3304348,188.545189 64.2567391,190.017163 65.5115217,190.458625 C66.7669565,190.900087 69.7193478,190.900087 71.2695652,190.900087 C72.8197826,190.900087 78.2086957,191.709542 80.8663043,191.047024 C83.523913,190.385156 83.8193478,189.943694 81.9736957,188.618658" id="Fill-19" fill="#606060"></path>
                        <path d="M33.2024348,79.9007944 C28.7246087,87.9069264 29.4935217,92.3547053 29.4283043,102.019408 C29.3637391,111.684761 29.168087,127.705478 29.168087,127.705478 C29.168087,127.705478 41.5306957,131.014167 50.4446087,130.494685 C59.3585217,129.975854 70.6150435,127.965544 70.6150435,127.965544 C70.6150435,127.965544 68.2072174,95.2739462 65.9298261,85.8686591 C63.6524348,76.4627218 62.2867826,72.2470518 62.2867826,72.2470518 C62.2867826,72.2470518 56.5606957,73.2196987 49.013087,72.4414512 C41.4654783,71.6632036 40.6848261,71.0143389 40.6848261,71.0143389 C40.6848261,71.0143389 37.3013478,72.570834 33.2024348,79.9007944 Z" id="Fill-23" fill="#CED5D9"></path>
                        <path d="M123.761217,64.7745752 C123.370565,64.5151594 116.963609,63.512605 116.963609,63.512605 L115.708826,62.9970241 C115.708826,62.9970241 123.469043,63.6159812 123.533609,63.2915488 C123.598826,62.9671165 123.859043,62.5783178 123.339261,62.5126512 C122.818174,62.4482848 112.83013,60.4210703 112.83013,60.4210703 C112.83013,60.4210703 115.367739,58.0291132 115.693174,57.5096314 C116.018609,56.9907997 116.473826,55.9531363 115.953391,55.9531363 C115.432957,55.9531363 115.302522,56.2775686 114.587087,56.7313838 C113.871652,57.1858492 111.073826,58.2878789 110.293174,58.9367436 C109.51187,59.5856083 107.169913,61.2721363 107.169913,61.2721363 L80.0538261,57.5512419 C80.0538261,57.5512419 70.5314348,45.8502221 68.4646957,43.347737 C66.3973043,40.845902 63.5923043,38.9324663 63.5923043,38.9324663 C61.5992609,38.0495422 61.6726071,39.5215158 61.6726071,39.5215158 L65.807087,57.992704 C65.807087,57.992704 76.584913,64.395529 77.2488261,64.395529 C77.9133913,64.395529 107.039478,65.3584234 107.039478,65.3584234 C107.039478,65.3584234 108.992087,66.266704 110.227957,67.0449515 C111.464478,67.823199 119.271652,70.2879746 119.271652,70.2879746 C119.271652,70.2879746 119.792087,70.0285587 119.207087,69.5747436 C118.620783,69.1209284 114.847304,67.3043673 114.847304,67.3043673 L122.65513,68.9908954 C122.65513,68.9908954 123.111,68.666463 122.915348,68.3420307 C122.720348,68.0175983 115.758391,65.3584234 115.758391,65.3584234 L123.566217,65.7478723 C123.566217,65.7478723 124.15187,65.0339911 123.761217,64.7745752" id="Fill-27" fill="#FFFFFF"></path>
                        <path d="M123.761217,64.7745752 C123.370565,64.5151594 116.963609,63.512605 116.963609,63.512605 L115.708826,62.9970241 C115.708826,62.9970241 123.469043,63.6159812 123.533609,63.2915488 C123.598826,62.9671165 123.859043,62.5783178 123.339261,62.5126512 C122.818174,62.4482848 112.83013,60.4210703 112.83013,60.4210703 C112.83013,60.4210703 115.367739,58.0291132 115.693174,57.5096314 C116.018609,56.9907997 116.473826,55.9531363 115.953391,55.9531363 C115.432957,55.9531363 115.302522,56.2775686 114.587087,56.7313838 C113.871652,57.1858492 111.073826,58.2878789 110.293174,58.9367436 C109.51187,59.5856083 107.169913,61.2721363 107.169913,61.2721363 L80.0538261,57.5512419 C80.0538261,57.5512419 70.5314348,45.8502221 68.4646957,43.347737 C66.3973043,40.845902 63.5923043,38.9324663 63.5923043,38.9324663 C61.5992609,38.0495422 61.6726071,39.5215158 61.6726071,39.5215158 L65.807087,57.992704 C65.807087,57.992704 76.584913,64.395529 77.2488261,64.395529 C77.9133913,64.395529 107.039478,65.3584234 107.039478,65.3584234 C107.039478,65.3584234 108.992087,66.266704 110.227957,67.0449515 C111.464478,67.823199 119.271652,70.2879746 119.271652,70.2879746 C119.271652,70.2879746 119.792087,70.0285587 119.207087,69.5747436 C118.620783,69.1209284 114.847304,67.3043673 114.847304,67.3043673 L122.65513,68.9908954 C122.65513,68.9908954 123.111,68.666463 122.915348,68.3420307 C122.720348,68.0175983 115.758391,65.3584234 115.758391,65.3584234 L123.566217,65.7478723 C123.566217,65.7478723 124.15187,65.0339911 123.761217,64.7745752 Z" id="Stroke-29" fill="#DD5737"></path>
                        <path d="M78.4195435,55.5430772 C75.6047609,52.0868 69.9947609,45.199602 68.4647609,43.347932 C66.3973696,40.846097 63.5923696,38.9326614 63.5923696,38.9326614 C61.5993261,38.0490871 61.6730217,39.5210607 61.6730217,39.5210607 L65.8071522,57.992899 C65.8071522,57.992899 70.670413,60.8815822 74.0649783,62.7781135 L78.4195435,55.5430772 Z" id="Fill-31" fill="#86E4AE"></path>
                        <path d="M49.5987391,37.3495746 C49.5987391,37.3495746 43.9378696,37.6089904 40.4898261,41.4358617 C37.0411304,45.262733 37.4317826,53.6953733 38.8633043,58.7549574 C40.2941739,63.8145416 42.1163478,66.6037495 41.7256957,68.3546439 C41.3356957,70.1061884 39.9041739,70.6900366 40.6848261,72.3115482 C41.4654783,73.9330597 45.9550435,75.6846043 53.8926522,75.4251884 C61.830913,75.1657726 63.3276522,73.4792446 63.3922174,71.9871158 C63.4574348,70.4949871 62.8724348,69.2629244 63.0667826,68.3546439 C63.2624348,67.4470135 68.9878696,62.3874294 68.9878696,56.8090135 C68.9878696,51.2305977 66.5154783,49.2846538 65.9304783,45.262733 C65.3448261,41.2414624 65.5398261,40.6576142 63.132,38.9060696 C60.7248261,37.1551752 52.7872174,36.2468947 49.5987391,37.3495746" id="Fill-35" fill="#FFFFFF"></path>
                        <path d="M49.5987391,37.3495746 C49.5987391,37.3495746 43.9378696,37.6089904 40.4898261,41.4358617 C37.0411304,45.262733 37.4317826,53.6953733 38.8633043,58.7549574 C40.2941739,63.8145416 42.1163478,66.6037495 41.7256957,68.3546439 C41.3356957,70.1061884 39.9041739,70.6900366 40.6848261,72.3115482 C41.4654783,73.9330597 45.9550435,75.6846043 53.8926522,75.4251884 C61.830913,75.1657726 63.3276522,73.4792446 63.3922174,71.9871158 C63.4574348,70.4949871 62.8724348,69.2629244 63.0667826,68.3546439 C63.2624348,67.4470135 68.9878696,62.3874294 68.9878696,56.8090135 C68.9878696,51.2305977 66.5154783,49.2846538 65.9304783,45.262733 C65.3448261,41.2414624 65.5398261,40.6576142 63.132,38.9060696 C60.7248261,37.1551752 52.7872174,36.2468947 49.5987391,37.3495746 Z" id="Stroke-37" fill="#86E4AE"></path>
                        <path d="M51.0301304,26.3224508 C51.0301304,26.3224508 52.0064348,30.0199393 51.876,33.1979459 C51.7462174,36.3766026 51.4207826,37.6736818 51.4207826,37.6736818 L58.0573043,48.1816488 L59.9440435,38.4519294 L61.179913,31.7064673 C61.179913,31.7064673 53.6329565,31.2526521 51.0301304,26.3224508" id="Fill-39" fill="#FFFFFF"></path>
                        <path d="M51.0301304,26.3224508 C51.0301304,26.3224508 52.0064348,30.0199393 51.876,33.1979459 C51.7462174,36.3766026 51.4207826,37.6736818 51.4207826,37.6736818 L58.0573043,48.1816488 L59.9440435,38.4519294 L61.179913,31.7064673 C61.179913,31.7064673 53.6329565,31.2526521 51.0301304,26.3224508 Z" id="Stroke-41" fill="#DD5737"></path>
                        <polygon id="Fill-43" fill="#019F44" points="100.318043 87.3925809 155.239565 87.3925809 155.239565 42 100.318043 42"></polygon>
                    </g>
                    <g id="Group-54" transform="translate(88.000000, 42.000000)">
                        <polygon id="Fill-51" fill="#AAFF00" points="0 45 55 45 55 0 0 0"></polygon>
                        <polygon id="Stroke-52" fill="#1FD461" points="0 45 55 45 55 0 0 0"></polygon>
                    </g>
                    <g id="Group-82" transform="translate(39.000000, 8.000000)">
                        <path d="M39.9678665,93.7892833 C41.7329188,90.9940889 49.0418194,78.6050194 49.0418194,78.6050194 L60.7087042,78.6050194 L54.7060864,93.7892833 L39.9678665,93.7892833 Z" id="Fill-60" fill="#019F44"></path>
                        <polygon id="Fill-64" fill="#1FD461" points="49.0420157 77.7894792 43.9680628 93.7894792 101.525654 93.7894792 104.193194 77.7894792"></polygon>
                        <g id="Group-71" transform="translate(0.000000, 36.555556)">
                            <path d="M0.382918848,8.02139861 C0.382918848,8.02139861 3.19051047,11.3427319 7.10804974,13.6875097 C11.025589,16.0316347 25.4555628,24.1724264 26.564856,24.6280653 C27.6754581,25.0843569 62.0844895,19.4835236 62.0844895,19.4835236 C62.0844895,19.4835236 64.0426047,20.3954542 65.2834424,21.1768292 C66.5242801,21.9582042 74.3593586,24.4328847 74.3593586,24.4328847 C74.3593586,24.4328847 67.6335733,13.8826903 67.6335733,13.8826903 C67.6335733,13.8826903 70.4411649,12.1241069 70.7677356,11.6031903 C71.0943063,11.0822736 71.551767,10.0404403 71.0295157,10.0404403 C70.5066099,10.0404403 70.3763743,10.3655236 69.657788,10.8218153 C68.939856,11.2774542 66.1322644,12.3845653 65.3488874,13.0360375 C64.5655105,13.6875097 62.2147251,15.3801625 62.2147251,15.3801625 L30.7441754,15.4454403 L11.2219241,0.0764402778" id="Fill-68" fill="#DD5737"></path>
                            <path d="M0.382918848,8.02139861 C0.382918848,8.02139861 3.19051047,11.3427319 7.10804974,13.6875097 C11.025589,16.0316347 25.4555628,24.1724264 26.564856,24.6280653 C27.6754581,25.0843569 62.0844895,19.4835236 62.0844895,19.4835236 C62.0844895,19.4835236 64.0426047,20.3954542 65.2834424,21.1768292 C66.5242801,21.9582042 74.3593586,24.4328847 74.3593586,24.4328847 C74.3593586,24.4328847 74.8809555,24.1724264 74.2939136,23.7161347 C73.7062173,23.2604958 69.9189136,21.4372875 69.9189136,21.4372875 L77.7539921,23.1305931 C77.7539921,23.1305931 78.2107984,22.8048569 78.0157723,22.4791208 C77.8194372,22.1533847 70.8331806,19.4835236 70.8331806,19.4835236 C70.5718368,17.703181 70.4411649,16.8130097 70.4411649,16.8130097 C70.4411649,16.8130097 78.9948298,16.0969125 79.0596204,15.7711764 C79.1257199,15.4454403 79.3861911,15.0544264 78.8639398,14.9898014 C78.3423429,14.9245236 67.6335733,13.8826903 67.6335733,13.8826903 C67.6335733,13.8826903 70.4411649,12.1241069 70.7677356,11.6031903 C71.0943063,11.0822736 71.551767,10.0404403 71.0295157,10.0404403 C70.5066099,10.0404403 70.3763743,10.3655236 69.657788,10.8218153 C68.939856,11.2774542 66.1322644,12.3845653 65.3488874,13.0360375 C64.5655105,13.6875097 62.2147251,15.3801625 62.2147251,15.3801625 L30.7441754,15.4454403 L11.2219241,0.0764402778" id="Stroke-70"></path>
                        </g>
                        <path d="M67.6338351,50.4381153 C67.6338351,50.4381153 70.4414267,48.6795319 70.7679974,48.1586153 C71.0945681,47.6376986 71.5513743,46.5958653 71.029123,46.5958653 C70.5062173,46.5958653 70.3759817,46.9216014 69.6580497,47.3772403 C68.9401178,47.8328792 66.1325262,48.9399903 65.3491492,49.5914625 C64.5651178,50.2429347 62.2149869,51.9362403 62.2149869,51.9362403 L30.7437827,52.0008653 L27.2385471,49.2415736 C25.9034686,51.5315181 23.4806937,55.8281014 21.8884162,58.6605042 C24.338678,60.0221986 26.194699,61.0320458 26.5651178,61.1841431 C27.6750654,61.6397819 62.0840969,56.0389486 62.0840969,56.0389486 C62.0840969,56.0389486 64.0428665,56.9508792 65.2837042,57.7322542 C66.5245419,58.5136292 74.358966,60.9883097 74.358966,60.9883097 C74.358966,60.9883097 78.9830933,52.0008653 78.4213257,51.9362403 C77.8990744,51.8709625 67.6338351,50.4381153 67.6338351,50.4381153 Z" id="Fill-72" fill="#DD5737"></path>
                        <path d="M18.1348822,0.406027778 C18.1348822,0.406027778 18.0066099,5.26008333 14.2926047,8.83665278 C10.5792539,12.4132222 7.24941099,14.0732361 7.24941099,14.0732361 C7.24941099,14.0732361 7.6335733,16.1170833 8.40189791,16.7555 C9.17022251,17.3945694 10.7068717,17.266625 10.7068717,17.266625 C10.7068717,17.266625 11.8600131,20.8431944 14.9333115,23.6534028 C18.0066099,26.4636111 21.5923429,26.208375 23.6414267,21.9927361 C25.6905105,17.77775 26.7147251,13.5627639 26.4588351,11.1357361 L26.202945,8.70870833 C26.202945,8.70870833 19.5432592,5.00419444 18.1348822,0.406027778" id="Fill-76" fill="#DD5737"></path>
                        <path d="M26.0298429,12.6870625 C26.0298429,12.4918819 27.3354712,11.8404097 27.6620419,13.0780764 C27.9886126,14.3150903 27.3354712,16.3994097 26.6175393,17.1155069 C25.8989529,17.8316042 25.246466,18.0274375 25.246466,17.1155069 C25.246466,16.2035764 26.0298429,12.6870625 26.0298429,12.6870625" id="Fill-80" fill="#DD5737"></path>
                    </g>
                </g>
                <g id="Group-57" transform="translate(143.348137, 87.000000)">
                    <mask id="mask-6" fill="white">
                        <use xlink:href="#path-5"></use>
                    </mask>
                    <g id="Clip-56"></g>
                    <path d="M27,15 C24.4039527,11.4384353 14.4177579,-4 14.4177579,-4 L-3,-4 L5.32295657,15 L27,15 Z" id="Fill-55" fill="#019F44" mask="url(#mask-6)"></path>
                </g>
            </g>
        </g>
    </g>
</svg>