<?xml version="1.0" encoding="UTF-8"?>
<svg width="192px" height="202px" viewBox="0 0 192 202" version="1.1" xmlns="http://www.w3.org/2000/svg" xmlns:xlink="http://www.w3.org/1999/xlink">
    <title>D1A8A4C5-D0AB-4FE0-B223-F4AE3BFB2ECA</title>
    <defs>
        <polygon id="path-1" points="0 0.322144699 191.628317 0.322144699 191.628317 115.858426 0 115.858426"></polygon>
        <path d="M37.500403,0.835671429 C38.2234144,0.4218 39.1113232,0.420214286 39.8353916,0.831442857 L39.8353916,0.831442857 L49.2620228,6.18692857 C50.0611407,6.64044286 50.8602586,7.09501429 51.6599049,7.54905714 C52.4965475,8.02477143 52.5081749,9.22568571 51.6810456,9.71672857 C48.3360608,11.7036286 44.9905475,13.6894714 41.6455627,15.6763714 C41.0182129,16.0484857 40.3913916,16.4211286 39.7640418,16.7932429 C32.7638327,20.9509857 25.7636236,25.1076714 18.7634144,29.2643571 C19.44573,31.8337429 20.1280456,34.4026 20.8108897,36.9709286 C16.5330722,34.3634857 12.2563118,31.7555143 7.97902281,29.1480714 C5.71009886,27.7642714 3.44170342,26.3815286 1.17277947,24.9982571 C0.731996198,24.7419 0.442368821,24.3549857 0.303368821,23.9279 C0.0343536122,23.1006857 0.32926616,22.1212429 1.18493536,21.6312571 C4.10552091,19.9593857 7.02504943,18.2869857 9.94510646,16.6151143 C11.8245133,15.5384143 13.7039202,14.4622429 15.5827985,13.3866 L15.5827985,13.3866" id="path-3"></path>
        <path d="M23.3329734,0.456157143 C23.6294715,0.278557143 23.8873878,0.741057143 23.6035741,0.910728571 L23.6035741,0.910728571 L17.7243498,4.41621429 C12.1130837,7.76312857 6.50128897,11.1100429 0.889494297,14.4564286 C0.77004943,14.5277857 0.598281369,14.4833857 0.526931559,14.3644571 C0.452410646,14.2386571 0.493634981,14.0769143 0.618893536,14.0018571 L0.618893536,14.0018571 L6.49811787,10.4958429" id="path-5"></path>
        <polygon id="path-7" points="0.375971192 0.444849558 48.9509467 0.444849558 48.9509467 58.5799513 0.375971192 58.5799513"></polygon>
    </defs>
    <g id="Android-" stroke="none" stroke-width="1" fill="none" fill-rule="evenodd">
        <g id="5.3.4.2--fiche-profil-paramètres-paiements" transform="translate(-90.000000, -231.000000)">
            <g id="Group-172" transform="translate(90.000000, 231.000000)">
                <path d="M188.892443,167.991312 L134.169311,200.853094 C131.633059,202.376281 128.46631,202.382632 125.924243,200.87003 L3.52454066,128.061899 C1.52946779,126.874786 0.284330916,124.74296 0.229367319,122.419544 L-9.09494702e-13,112.698244 L62.1923671,80 L192,152.315928 L192,162.496089 C192,164.747526 190.819868,166.833308 188.892443,167.991312" id="Fill-1" fill="#606060"></path>
                <path d="M144.830015,66.2453777 L143.253282,66.2583107 C139.298621,66.2903844 136.066083,63.1497463 136.033093,59.2424427 L135.966588,51.3460994 C135.934122,47.4393132 139.11377,44.2459086 143.068431,44.2133176 L158,44.0912305 C157.616683,44.0338082 157.226558,43.9970786 156.826484,44 L141.32151,44.1269255 C137.244836,44.1605512 133.966741,47.4527635 134.000255,51.4800848 L134.068854,59.6206023 C134.102892,63.6484409 137.434924,67.4165859 141.512121,67.3829602 L143.405666,67.3700272 L149.478522,73 L155.162824,67.2650117 L150.598625,71.8500019 L144.830015,66.2453777 Z" id="Fill-3" fill="#CED7DB"></path>
                <path d="M164.932487,51.0762409 C164.898855,47.1356866 161.60354,43.9673808 157.572077,44 L157.461574,44.0007753 L142.239491,44.1244394 C138.208027,44.1567904 134.966628,47.3783187 135,51.3188731 L135.068055,59.283468 C135.101153,63.2240224 138.396468,66.3923282 142.428465,66.3599773 L144.035285,66.3469325 L149.915926,72 L154.569298,67.3753796 L155.699411,66.2519668 L157.759984,66.2357914 C161.791981,66.2029186 165.032846,62.981912 165,59.0413577 L164.932487,51.0762409 Z" id="Fill-5" fill="#B3AEA9"></path>
                <path d="M188.892443,163.991164 L134.169311,196.853089 C131.633059,198.376283 128.46631,198.382634 125.924243,196.870025 L3.52454066,124.061578 C1.52946779,122.874461 0.284330916,120.742624 0.229367319,118.419198 L-9.09494702e-13,108.697856 L62.1923671,76 L192,148.316241 L192,158.495917 C192,160.747365 190.819868,162.833156 188.892443,163.991164" id="Fill-7" fill="#B3AEA9"></path>
                <g id="Group-11" transform="translate(-0.000000, 69.000000)">
                    <mask id="mask-2" fill="white">
                        <use xlink:href="#path-1"></use>
                    </mask>
                    <g id="Clip-10"></g>
                    <path d="M189.293169,81.6324991 L135.878664,114.017251 C131.856158,116.455912 126.831982,116.473472 122.793653,114.061417 L2.42811429,42.1861138 C-0.832193407,40.2391229 -0.80370989,35.4698202 2.47980659,33.5627376 L57.6761143,1.50416881 C60.3962901,-0.0761981651 63.7452132,-0.0714091743 66.4616967,1.51587523 L189.22618,73.2640037 C192.399455,75.1189394 192.435851,79.7270128 189.293169,81.6324991" id="Fill-9" fill="#CED7DB" mask="url(#mask-2)"></path>
                </g>
                <polygon id="Fill-12" fill="#FFFFFF" points="12 113.869269 69.9072498 80 172 138.899211 112.346989 173"></polygon>
                <path d="M153.5,156.518882 C149.66413,156.518882 146.543478,158.304872 146.543478,160.500259 C146.543478,162.695128 149.66413,164.481118 153.5,164.481118 C157.33587,164.481118 160.456522,162.695128 160.456522,160.500259 C160.456522,158.304872 157.33587,156.518882 153.5,156.518882 M153.5,165 C149.364674,165 146,162.981032 146,160.500259 C146,158.018968 149.364674,156 153.5,156 C157.635326,156 161,158.018968 161,160.500259 C161,162.981032 157.635326,165 153.5,165" id="Fill-14" fill="#CCCCCC"></path>
                <path d="M169.780118,167.549841 L158.919858,173.620136 C158.694233,173.74576 158.559865,173.962609 158.559865,174.199898 L158.559865,175.996011 C158.559865,176.184446 158.671278,176.350448 158.857153,176.43968 C159.042469,176.527417 159.259696,176.519441 159.436613,176.415254 L170.076287,170.134091 C170.31423,169.993513 170.453076,169.748747 170.439639,169.494509 L170.345582,167.811556 C170.338304,167.692414 170.266081,167.592214 170.14683,167.53688 C170.027579,167.481047 169.893771,167.486033 169.780118,167.549841 M159.126448,177 C158.944492,177 158.762536,176.96012 158.592897,176.878863 C158.221147,176.700897 158,176.371385 158,175.996011 L158,174.199898 C158,173.790126 158.232344,173.415749 158.62201,173.197404 L169.48283,167.127109 C169.765562,166.969581 170.109879,166.958116 170.405488,167.094706 C170.701656,167.231795 170.888091,167.491018 170.904327,167.787628 L170.998385,169.470581 C171.021899,169.899295 170.787315,170.312556 170.385892,170.549844 L159.746219,176.831007 C159.555305,176.943669 159.341436,177 159.126448,177" id="Fill-16" fill="#CCCCCC"></path>
                <path d="M25.2727315,98 C25.1774479,98 25.0848867,97.9518773 25.0347948,97.8666163 C24.9612903,97.7400326 25.0081154,97.5810183 25.13879,97.5104034 L44.5946042,87.0337693 C44.7263678,86.9626313 44.8918889,87.0076156 44.9648489,87.1336763 C45.0388978,87.2597369 44.9920728,87.4192742 44.8608537,87.4898891 L25.405584,97.9665233 C25.3636592,97.9890155 25.3179231,98 25.2727315,98" id="Fill-18" fill="#CCCCCC"></path>
                <path d="M14.540057,127.281885 C14.525502,127.576107 14.6802163,127.853725 14.9432845,128.005247 L31.1952953,137.366409 C31.4475821,137.511185 31.7537763,137.519488 32.0136101,137.384571 C32.2734438,137.250692 32.4367833,137.001096 32.4507993,136.71777 L32.4599635,136.52214 C32.4745185,136.223766 32.3176479,135.94563 32.0502671,135.795145 L15.788553,126.629613 C15.5357272,126.487431 15.2316893,126.481723 14.9734727,126.617159 C14.7157952,126.752076 14.5535339,127.000116 14.540057,127.281885 M31.6206249,138 C31.3780415,138 31.1365362,137.936693 30.9182112,137.811116 L14.6662004,128.449954 C14.2327847,128.200358 13.9778025,127.743716 14.0015218,127.257496 C14.0241629,126.79307 14.2915438,126.38313 14.7163343,126.161036 C15.1405857,125.938942 15.643542,125.947244 16.0607855,126.181792 L32.3224996,135.347325 C32.7634623,135.595364 33.022218,136.05512 32.9984987,136.546529 L32.9887954,136.74164 C32.9661543,137.209698 32.6966171,137.620676 32.2680531,137.842251 C32.064283,137.94759 31.8421844,138 31.6206249,138" id="Fill-20" fill="#CCCCCC"></path>
                <path d="M36.5352775,139.213685 C36.5261882,139.48989 36.6839143,139.747131 36.9469695,139.884747 L53.2243093,148.412092 C53.4777404,148.545331 53.7814301,148.545818 54.037,148.417441 C54.2920352,148.287605 54.4497613,148.051275 54.458316,147.785768 L54.4647319,147.602441 C54.4738212,147.322832 54.3134218,147.06462 54.0455546,146.927003 L37.7617989,138.583957 C37.509437,138.454122 37.2068166,138.454122 36.9528508,138.584444 C36.7004889,138.714279 36.5438321,138.949637 36.5352775,139.213685 M53.6354666,149 C53.4023527,149 53.1697734,148.944564 52.9580461,148.833693 L36.6801717,140.306349 C36.2460237,140.078771 35.9856419,139.654738 36.0006125,139.199583 C36.0145138,138.763393 36.272757,138.374858 36.690865,138.160897 C37.1079036,137.946449 37.6062114,137.946449 38.0243193,138.160411 L54.3086098,146.503456 C54.7497084,146.729575 55.0143675,147.15604 54.9993969,147.61703 L54.9929809,147.79987 C54.978545,148.238977 54.7186978,148.627998 54.2973818,148.84196 C54.0899318,148.947482 53.8626992,149 53.6354666,149" id="Fill-22" fill="#CCCCCC"></path>
                <g id="Group-68" transform="translate(25.000000, 86.000000)">
                    <path d="M137.365455,54.9222714 L129.694558,50.8189714 L115.993809,43.0357571 C115.26974,42.624 114.38236,42.6255857 113.659349,43.0399857 L77.343881,63.8350429 C76.0453144,64.5787429 76.0384437,66.4493571 77.3311966,67.2020429 L87.8175046,73.3096857 C89.0653335,74.0364714 90.6086034,74.0296 91.8500901,73.2927714 L123.787851,54.3265714 L137.365455,54.9222714 Z" id="Fill-24" fill="#B3AEA9"></path>
                    <path d="M138.5237,50.2492771 L130.853332,46.1459771 L117.152583,38.3627629 C116.427986,37.9510057 115.540605,37.9525914 114.817594,38.3669914 L78.5026548,59.1620486 C77.2040882,59.9057486 77.1972175,61.7763629 78.4899703,62.5290486 L88.9762783,68.6366914 C90.2235787,69.3634771 91.7673772,69.3571343 93.0088639,68.6197771 L124.946624,49.6541057 L138.5237,50.2492771 Z" id="Fill-26" fill="#00D65B"></path>
                    <path d="M84.3821433,60.7473929 C84.292824,60.7473929 84.2056186,60.7019357 84.1554095,60.6194786 C84.0808886,60.4942071 84.1210559,60.3319357 84.2457859,60.25635 L103.154543,48.8651071 C103.278216,48.7911071 103.441527,48.8296929 103.517105,48.9549643 C103.592155,49.0802357 103.551987,49.2425071 103.426729,49.3180929 L84.5185008,60.7098643 C84.4762194,60.7352357 84.4286529,60.7473929 84.3821433,60.7473929" id="Fill-28" fill="#FFFFFF"></path>
                    <path d="M87.7267053,62.9437657 C87.6368574,62.9437657 87.5491236,62.89778 87.499443,62.8147943 C87.4249221,62.6895229 87.4661464,62.5272514 87.5914049,62.4521943 L110.306013,48.9064943 C110.429686,48.8319657 110.592998,48.8721371 110.668048,48.9984657 C110.743097,49.1237371 110.701873,49.2860086 110.576086,49.3610657 L87.8620057,62.9067657 C87.8197243,62.9321371 87.7732148,62.9437657 87.7267053,62.9437657" id="Fill-30" fill="#FFFFFF"></path>
                    <path d="M91.3215202,64.9552971 C91.2327293,64.9552971 91.1460525,64.9103686 91.0958433,64.8289686 C91.0202654,64.7042257 91.0588471,64.5419543 91.1835772,64.4653114 L112.090129,51.6553829 C112.213273,51.5803257 112.377113,51.6183829 112.45322,51.7431257 C112.529326,51.86734 112.490744,52.03014 112.365486,52.1062543 L91.4594631,64.9167114 C91.4166532,64.94314 91.3690867,64.9552971 91.3215202,64.9552971" id="Fill-32" fill="#FFFFFF"></path>
                    <path d="M117.57862,42.2272543 C115.041738,42.2272543 112.975765,43.70884 112.96515,45.5419257 C112.959909,46.4193543 113.426061,47.2523829 114.277502,47.8877257 C115.153255,48.5405114 116.325506,48.9046971 117.577035,48.9115686 C118.820635,48.9115686 120.005571,48.5695829 120.889251,47.92684 C121.748092,47.3020686 122.224286,46.4748543 122.229615,45.5974257 C122.234856,44.7199971 121.768704,43.8874971 120.916734,43.2516257 C120.040981,42.5983114 118.86873,42.2346543 117.617202,42.2272543 L117.57862,42.2272543 Z M117.617202,49.44014 L117.573863,49.44014 C116.210289,49.4322114 114.92705,49.0310257 113.961449,48.3111114 C112.971537,47.5726971 112.430335,46.5884971 112.436622,45.5392829 C112.449362,43.4149543 114.752111,41.6986829 117.579149,41.6986829 L117.620373,41.6986829 C118.983947,41.70714 120.267187,42.1077971 121.232787,42.82824 C122.2227,43.5661257 122.76443,44.5508543 122.758143,45.6005971 C122.751746,46.6498114 122.198388,47.6281971 121.200019,48.3544543 C120.236004,49.05534 118.964921,49.44014 117.617202,49.44014 L117.617202,49.44014 Z" id="Fill-34" fill="#FFFFFF"></path>
                    <path d="M90.4725103,27.8871643 L82.8016129,23.7833357 L69.1008639,16.00065 C68.3767954,15.5888929 67.4894152,15.5904786 66.7664038,16.0048786 L30.4509361,36.7999357 C29.1523696,37.5436357 29.1454989,39.41425 30.4387802,40.1669357 L40.9245597,46.2745786 C42.1723886,47.0013643 43.7156586,46.9944929 44.9571452,46.2576643 L76.8949057,27.2914643 L90.4725103,27.8871643 Z" id="Fill-36" fill="#B3AEA9"></path>
                    <path d="M67.9248605,11.33162 L31.6093928,32.1272057 C30.3108262,32.8703771 30.3039555,34.7409914 31.5972369,35.4942057 L42.0830163,41.6018486 C43.3308452,42.3286343 44.8746437,42.3217629 46.1156019,41.5844057 L83.9605981,19.1111343 L70.259849,11.3273914 C69.5352521,10.9161629 68.6478719,10.9177486 67.9248605,11.33162" id="Fill-38" fill="#00D65B"></path>
                    <polygon id="Fill-40" fill="#CED7DB" points="91.6307027 23.21417 83.9603338 19.11087 78.0536266 22.6189986"></polygon>
                    <path d="M37.4896741,33.7122857 C37.3998262,33.7122857 37.3126209,33.6668286 37.2629403,33.5843714 C37.1878909,33.4591 37.2275297,33.2968286 37.3533167,33.2212429 L56.2610163,21.83 C56.3857464,21.7554714 56.5485297,21.7940571 56.6241076,21.9198571 C56.699157,22.0451286 56.6589897,22.2074 56.5337312,22.2829857 L37.625503,33.6747571 C37.5832217,33.7001286 37.5356551,33.7122857 37.4896741,33.7122857" id="Fill-42" fill="#FFFFFF"></path>
                    <path d="M40.8341833,35.9086586 C40.7443354,35.9086586 40.6566015,35.8626729 40.6069209,35.7796871 C40.5324,35.6544157 40.5730958,35.4921443 40.6983544,35.4170871 L63.4124342,21.8713871 C63.5382213,21.7968586 63.700476,21.8380871 63.7744684,21.9633586 C63.8495179,22.08863 63.8082935,22.2509014 63.6825065,22.3259586 L40.9689551,35.8716586 C40.9266738,35.89703 40.8801643,35.9086586 40.8341833,35.9086586" id="Fill-44" fill="#FFFFFF"></path>
                    <path d="M44.4285224,37.9202429 C44.3397316,37.9202429 44.2525262,37.8753143 44.2028456,37.7939143 C44.1267392,37.6691714 44.1658494,37.5069 44.290051,37.4302571 L65.1966023,24.6198 C65.3213323,24.5431571 65.4835871,24.5833286 65.5596935,24.7075429 C65.6363285,24.8317571 65.5972183,24.9945571 65.4724882,25.0706714 L44.5664654,37.8816571 C44.523127,37.9080857 44.4750319,37.9202429 44.4285224,37.9202429" id="Fill-46" fill="#FFFFFF"></path>
                    <path d="M70.6850939,15.1921471 C68.1487403,15.1921471 66.0827669,16.6737329 66.071632,18.5068186 C66.0669114,19.3842471 66.5330635,20.2172757 67.3845046,20.85209 C68.2602574,21.5054043 69.4325084,21.86959 70.6840369,21.8764614 C71.9440217,21.87329 73.112573,21.5344757 73.9962536,20.8917329 C74.8550939,20.2669614 75.3312878,19.4392186 75.3366175,18.5623186 C75.3418582,17.68489 74.8757061,16.8518614 74.023208,16.2165186 C73.1474551,15.5632043 71.9757327,15.1995471 70.7236757,15.1921471 L70.6850939,15.1921471 Z M70.7242042,22.4050329 L70.6808658,22.4050329 C69.3172916,22.3971043 68.0340521,21.9959186 67.0684513,21.2760043 C66.0785388,20.53759 65.5373373,19.55339 65.5431046,18.5036471 C65.5558354,16.3698043 67.8633411,14.62869 70.7268468,14.6635757 C72.0909494,14.6715043 73.374189,15.07269 74.3397897,15.7931329 C75.3297023,16.5310186 75.8714323,17.5157471 75.8651452,18.56549 L75.6008316,18.5639043 L75.8651452,18.56549 C75.8587479,19.6147043 75.3053905,20.59309 74.3070217,21.3193471 C73.3424779,22.0202329 72.0719228,22.4050329 70.7242042,22.4050329 L70.7242042,22.4050329 Z" id="Fill-48" fill="#FFFFFF"></path>
                    <g id="Group-52" transform="translate(44.923954, 32.771429)">
                        <mask id="mask-4" fill="white">
                            <use xlink:href="#path-3"></use>
                        </mask>
                        <g id="Clip-51"></g>
                        <path d="M1.17277947,24.9982571 C3.44170342,26.3815286 5.71009886,27.7642714 7.97902281,29.1480714 C12.2563118,31.7555143 16.5330722,34.3634857 20.8108897,36.9709286 C20.1280456,34.4026 19.44573,31.8337429 18.7634144,29.2643571 C25.7636236,25.1076714 32.7638327,20.9509857 39.7640418,16.7932429 C40.3913916,16.4211286 41.0182129,16.0484857 41.6455627,15.6763714 C44.9905475,13.6894714 48.3360608,11.7036286 51.6810456,9.71672857 C52.5081749,9.22568571 52.4965475,8.02477143 51.6599049,7.54905714 C50.8602586,7.09501429 50.0611407,6.64044286 49.2620228,6.18692857 C46.1199886,4.40194286 42.9774259,2.61642857 39.8353916,0.831442857 C39.1113232,0.420214286 38.2234144,0.4218 37.500403,0.835671429 L15.5827985,13.3866 C13.7039202,14.4622429 11.8245133,15.5384143 9.94510646,16.6151143 C7.02504943,18.2869857 4.10552091,19.9593857 1.18493536,21.6312571 C0.32926616,22.1212429 0.0343536122,23.1006857 0.303368821,23.9279 C0.442368821,24.3549857 0.731996198,24.7419 1.17277947,24.9982571" id="Fill-50" mask="url(#mask-4)"></path>
                    </g>
                    <path d="M97.09187,36.1414414 L85.2509726,29.4143129 C84.5269042,29.0025557 83.6389954,29.0041414 82.915984,29.4180129 L46.6005163,50.2135986 C45.3019498,50.9572986 45.2950791,52.8273843 46.5878319,53.5805986 L57.0741399,59.68877 C57.2950601,59.8172129 57.5270791,59.91447 57.7627977,59.9969271 L57.7516989,60.0006271 L66.2264707,65.5543271 L64.1789954,57.8472271 L97.1124821,38.2895557 C97.9327407,37.80327 97.9205848,36.6123986 97.09187,36.1414414" id="Fill-53" fill="#606060"></path>
                    <g id="Group-57" transform="translate(59.722433, 34.885714)">
                        <mask id="mask-6" fill="white">
                            <use xlink:href="#path-5"></use>
                        </mask>
                        <g id="Clip-56"></g>
                        <path d="M0.526931559,14.3644571 C0.598281369,14.4833857 0.77004943,14.5277857 0.889494297,14.4564286 C6.50128897,11.1100429 12.1130837,7.76312857 17.7243498,4.41621429 L23.6035741,0.910728571 C23.8873878,0.741057143 23.6294715,0.278557143 23.3329734,0.456157143 C17.7211787,3.80254286 12.1099125,7.14945714 6.49811787,10.4958429 L0.618893536,14.0018571 C0.493634981,14.0769143 0.452410646,14.2386571 0.526931559,14.3644571" id="Fill-55" mask="url(#mask-6)"></path>
                    </g>
                    <path d="M64.0713894,51.39004 C63.9825985,51.39004 63.8959217,51.3451114 63.8457125,51.2637114 C63.7696061,51.1389686 63.8087163,50.9766971 63.9329179,50.9000543 L84.8399977,38.0901257 C84.9631422,38.01454 85.1269825,38.0531257 85.203089,38.1778686 C85.2791954,38.3020829 85.2406137,38.4648829 85.1153551,38.5409971 L64.2093323,51.3514543 C64.1665224,51.3778829 64.1184274,51.39004 64.0713894,51.39004" id="Fill-58" fill="#FFFFFF"></path>
                    <path d="M51.5552586,11.40932 L39.7307452,4.69170571 C39.0061483,4.28047714 38.1187681,4.28206286 37.3957567,4.69593429 L1.08028897,25.4909914 C-0.217749049,26.2346914 -0.225148289,28.1053057 1.06813308,28.8579914 L20.7057148,40.83172 L18.6587681,33.12462 L51.5763992,13.5769914 C52.403,13.0859486 52.3919011,11.8845057 51.5552586,11.40932" id="Fill-60" fill="#B3AEA9"></path>
                    <path d="M52.0631106,7.23006429 L40.2222133,0.502935714 C39.4976163,0.0917071429 38.6097076,0.0932928571 37.8872247,0.507164286 L1.57175703,21.30275 C0.273190494,22.0459214 0.266319772,23.9165357 1.55907262,24.66975 L12.0453806,30.7773929 C12.2663008,30.9058357 12.4983198,31.0030929 12.7340384,31.08555 L12.7229395,31.0897786 L21.1971829,36.64295 L19.1502361,28.93585 L52.0837228,9.37870714 C52.9034529,8.89189286 52.8918255,7.70102143 52.0631106,7.23006429" id="Fill-62" fill="#606060"></path>
                    <path d="M15.4483437,20.4675543 C15.3579673,20.4675543 15.2702335,20.4215686 15.2210814,20.3385829 C15.1465605,20.2133114 15.1872563,20.05104 15.3130433,19.9759829 L38.0271232,6.43028286 C38.1523817,6.35628286 38.3146365,6.39645429 38.3891574,6.52225429 C38.4636783,6.64752571 38.4229825,6.80979714 38.2971954,6.88485429 L15.5831156,20.4305543 C15.5408342,20.4559257 15.4943247,20.4675543 15.4483437,20.4675543" id="Fill-64" fill="#FFFFFF"></path>
                    <path d="M19.0426829,22.4791386 C18.953892,22.4791386 18.8672152,22.43421 18.8175346,22.35281 C18.7408996,22.2280671 18.7800099,22.0657957 18.9047399,21.9891529 L39.8107627,9.17922429 C39.9360213,9.10258143 40.098276,9.14222429 40.173854,9.26643857 C40.250489,9.39065286 40.2113787,9.55345286 40.0871772,9.62956714 L19.1806259,22.4405529 C19.1372875,22.4669814 19.0897209,22.4791386 19.0426829,22.4791386" id="Fill-66" fill="#FFFFFF"></path>
                </g>
                <path d="M179,126.146426 L171.203778,122.058702 L157.278232,114.306556 C156.541746,113.896415 155.639806,113.897994 154.904932,114.310242 L117.994149,135.023697 C116.674276,135.765005 116.667293,137.628278 117.981257,138.378011 L128.63962,144.461686 C129.907386,145.18562 131.476515,145.178776 132.738371,144.444838 L165.200156,125.553064 L179,126.146426 Z" id="Fill-69" fill="#B3AEA9"></path>
                <path d="M180,121.146387 L172.203812,117.05918 L158.277789,109.306492 C157.541843,108.896349 156.639907,108.897929 155.905036,109.310704 L118.993876,130.024202 C117.674546,130.764985 117.667026,132.628263 118.981521,133.377997 L129.639301,139.461685 C130.907599,140.18562 132.476183,140.178776 133.738572,139.444837 L166.199678,120.55355 L180,121.146387 Z" id="Fill-71" fill="#606060"></path>
                <path d="M125.271816,131 C125.179906,131 125.090172,130.95805 125.038507,130.881953 C124.961825,130.766346 125.003157,130.616592 125.131504,130.546838 L144.58805,120.034349 C144.71531,119.966545 144.883357,120.001666 144.961127,120.117274 C145.038353,120.232881 144.997021,120.382635 144.86813,120.45239 L125.412127,130.965366 C125.36862,130.988781 125.319674,131 125.271816,131" id="Fill-73" fill="#FFFFFF"></path>
                <path d="M128.261621,134 C128.172711,134 128.085894,133.95099 128.036732,133.862547 C127.962989,133.729037 128.003783,133.556094 128.127733,133.4761 L150.604663,119.03957 C150.727045,118.960704 150.888651,119.002953 150.962917,119.13759 C151.037183,119.2711 150.996389,119.444043 150.871915,119.524036 L128.395509,133.960567 C128.353669,133.987607 128.307645,134 128.261621,134" id="Fill-75" fill="#FFFFFF"></path>
                <path d="M131.271254,135 C131.180122,135 131.09116,134.956213 131.039628,134.876882 C130.962058,134.75531 131.001656,134.597164 131.129674,134.522469 L152.587341,122.037632 C152.713732,121.963968 152.881349,122.001573 152.960004,122.123145 C153.038117,122.244202 152.998518,122.402864 152.869957,122.477043 L131.412833,134.962395 C131.368895,134.988152 131.320074,135 131.271254,135" id="Fill-77" fill="#FFFFFF"></path>
                <path d="M158.981814,113.477946 C156.524491,113.477946 154.522891,114.817629 154.512103,116.475147 C154.50753,117.268537 154.959157,118.021781 155.784068,118.596272 C156.632533,119.186536 157.768258,119.515841 158.98079,119.522054 L159.018681,119.522054 C160.217388,119.522054 161.341848,119.206609 162.189289,118.631162 C163.021881,118.06623 163.482725,117.318244 163.487888,116.525331 C163.492966,115.73194 163.041338,114.979175 162.215915,114.404206 C161.36745,113.813464 160.232238,113.484637 159.019194,113.477946 L158.981814,113.477946 Z M159.018169,120 L158.977718,120 C157.656631,119.992831 156.413376,119.63007 155.477863,118.979107 C154.518795,118.311416 153.994457,117.42148 154.000044,116.472757 C154.01289,114.551891 156.243888,113 158.982326,113 L159.022266,113 C160.343864,113.007647 161.586607,113.36993 162.522121,114.021371 C163.481189,114.688584 164.006039,115.578998 163.999948,116.528199 C163.99375,117.476922 163.457634,118.361122 162.490886,119.017821 C161.555884,119.652055 160.324406,120 159.018169,120 L159.018169,120 Z" id="Fill-79" fill="#FFFFFF"></path>
                <path d="M132,99.1462056 L124.203778,95.0590598 L110.278232,87.3064871 C109.542283,86.896351 108.639806,86.8979305 107.904932,87.310699 L70.9941492,108.023889 C69.6742762,108.764661 69.6672927,110.627384 70.9812566,111.377633 L81.6396204,117.461757 C82.9079233,118.185682 84.4765147,118.178837 85.7383713,117.444383 L118.200156,98.5533773 L132,99.1462056 Z" id="Fill-81" fill="#B3AEA9"></path>
                <path d="M108.063282,81.3102417 L71.9720611,102.024223 C70.6815131,102.765005 70.6746848,104.628278 71.959455,105.378011 L82.3810105,111.461686 C83.6211341,112.18562 85.1548744,112.178776 86.388695,111.444838 L124,89.0592282 L110.383327,81.3065562 C109.66373,80.8964148 108.781304,80.8979943 108.063282,81.3102417" id="Fill-83" fill="#606060"></path>
                <polygon id="Fill-85" fill="#606060" points="131 92 123.091008 88 117 91.4198119"></polygon>
                <path d="M79.272177,103 C79.1802691,103 79.0899927,102.958054 79.0388723,102.881965 C78.961648,102.766369 79.0029793,102.617118 79.1318679,102.54737 L98.587514,92.0354285 C98.7158587,91.9651928 98.8833595,92.0027494 98.9611277,92.1183457 C99.038352,92.2334542 98.9970207,92.3831927 98.8681321,92.4529407 L79.4119422,102.96537 C79.3678917,102.98927 79.3200343,103 79.272177,103" id="Fill-87" fill="#FFFFFF"></path>
                <path d="M82.2621224,106 C82.1732132,106 82.0863959,105.950989 82.0367113,105.862543 C81.9629689,105.72903 82.0037626,105.556083 82.1282355,105.476087 L104.604494,91.0391925 C104.726875,90.9608873 104.88848,91.0031383 104.963269,91.1372149 C105.037011,91.2707281 104.996217,91.4436757 104.872267,91.523671 L82.3954863,105.960566 C82.3536466,105.987606 82.3071,106 82.2621224,106" id="Fill-89" fill="#FFFFFF"></path>
                <path d="M85.2715204,109 C85.1798453,109 85.0908824,108.956212 85.0398916,108.876879 C84.9617779,108.755303 85.0019196,108.597152 85.1293968,108.522455 L106.587336,96.0377761 C106.714271,95.9641095 106.881347,96.0012003 106.960003,96.1227759 C107.038117,96.2438364 106.998518,96.4025028 106.869956,96.4766845 L85.4131014,108.962394 C85.36862,108.988152 85.319799,109 85.2715204,109" id="Fill-91" fill="#FFFFFF"></path>
                <path d="M85.2616153,134 C85.1727075,134 85.0858916,133.95099 85.0367308,133.862546 C84.9629896,133.729035 85.0037826,133.55609 85.1277306,133.476096 L107.604672,119.039442 C107.727051,118.960575 107.888654,119.003389 107.962918,119.137463 C108.037182,119.270974 107.996389,119.443919 107.871918,119.523913 L85.3955,133.960566 C85.353661,133.987607 85.3076381,134 85.2616153,134" id="Fill-99" fill="#FFFFFF"></path>
                <path d="M111.980543,85.4779462 C110.781896,85.4779462 109.658004,85.7933907 108.811117,86.3688379 C107.978566,86.9337703 107.517233,87.6817561 107.512078,88.4751468 C107.507505,89.2685375 107.959109,90.0213027 108.783979,90.5957941 C109.632403,91.1865356 110.768071,91.5153626 111.980543,91.5220543 L112.018945,91.5220543 C113.217592,91.5225317 114.341996,91.2066093 115.189395,90.63164 C116.021434,90.0667076 116.482767,89.3182439 116.48793,88.5248532 C116.493007,87.7319405 116.041403,86.9786973 115.216021,86.4042059 C114.367085,85.8134644 113.231929,85.4846374 112.018945,85.4779462 L111.980543,85.4779462 Z M112.018433,92 L111.977471,92 C110.65645,91.9928308 109.413257,91.6305476 108.477789,90.9791069 C107.518769,90.3114161 106.994457,89.4210023 107.000044,88.4722791 C107.006233,87.523078 107.542322,86.6388775 108.510047,85.9821794 C109.452682,85.3417315 110.693316,85.0014338 112.022017,85 C113.34355,85.0071692 114.586743,85.3699304 115.522211,86.021371 C116.481231,86.6885839 117.005543,87.5789977 116.999956,88.5277209 C116.993767,89.476922 116.457678,90.3611225 115.489953,91.0178206 C114.556022,91.6520552 113.325117,92 112.018433,92 L112.018433,92 Z" id="Fill-93" fill="#FFFFFF"></path>
                <path d="M137.366979,111.9388 L125.562235,105.303535 C124.83885,104.897347 123.952953,104.898914 123.231151,105.307712 L86.9763988,125.848372 C85.6800034,126.582433 85.6731441,128.430116 86.9642633,129.174097 L106.569013,141 L104.525488,133.387901 L137.387557,114.079899 C138.213303,113.594876 138.201695,112.408161 137.366979,111.9388" id="Fill-95" fill="#00A03F"></path>
                <path d="M138.37265,107.948408 L126.553496,101.303793 C125.830789,100.897608 124.94455,100.898652 124.223426,101.307447 L87.9762612,121.847959 C86.680137,122.582537 86.6732792,124.429685 87.9636006,125.17366 L98.4301859,131.20691 C98.650163,131.333778 98.8822731,131.429842 99.1170209,131.511288 L99.1059429,131.514942 L107.564775,137 L105.521678,129.387956 L138.393224,110.070174 C139.211412,109.589853 139.199806,108.413588 138.37265,107.948408" id="Fill-97" fill="#00D65B"></path>
                <path d="M101.261615,120 C101.172707,120 101.085892,119.95099 101.036731,119.862546 C100.96299,119.729035 101.003783,119.55609 101.127731,119.476096 L123.604672,105.039442 C123.727051,104.960575 123.888654,105.003389 123.962918,105.137463 C124.037182,105.270974 123.996389,105.443919 123.871918,105.523913 L101.3955,119.960566 C101.353661,119.987607 101.307638,120 101.261615,120" id="Fill-99" fill="#FFFFFF"></path>
                <path d="M104.271254,122 C104.180122,122 104.09116,121.956211 104.039628,121.876875 C103.962058,121.755296 104.001656,121.597141 104.129674,121.522442 L125.587341,109.037406 C125.714274,108.964252 125.881349,109.001344 125.960004,109.122923 C126.038117,109.243987 125.998518,109.402658 125.869957,109.476842 L104.412833,121.962393 C104.368895,121.988151 104.320074,122 104.271254,122" id="Fill-101" fill="#FFFFFF"></path>
                <path d="M93.3669792,81.9386998 L81.5617077,75.3035306 C80.8388498,74.897349 79.9529532,74.8989152 79.2311506,75.3077072 L42.9763988,95.8480696 C41.6800034,96.5821201 41.6731441,98.4297764 42.9642633,99.1737466 L62.5690129,111 L60.5249608,103.387489 L93.3875569,84.0797675 C94.2133033,83.5942291 94.2016954,82.4080536 93.3669792,81.9386998" id="Fill-103" fill="#00A03F"></path>
                <path d="M93.3726509,77.9480974 L81.5535114,71.3035306 C80.8308057,70.897349 79.944568,70.8989152 79.2229174,71.3077072 L42.9757976,91.8480696 C41.6802026,92.5821201 41.6733448,94.4297764 42.9636646,95.1737466 L53.4302367,101.206431 C53.6502136,101.333297 53.8817959,101.429361 54.1170709,101.510806 L54.1059929,101.51446 L62.5648148,107 L60.5211929,99.3874889 L93.3932243,80.0698479 C94.2114115,79.5895304 94.1998061,78.4132745 93.3726509,77.9480974" id="Fill-105" fill="#00D65B"></path>
                <path d="M57.2617612,91 C57.172851,91 57.0860328,90.9509884 57.0368707,90.8625421 C56.9631275,90.7290278 57.0033986,90.5560787 57.1273499,90.4760828 L79.6048938,76.039065 C79.7288451,75.9607591 79.8888834,76.0035739 79.9631496,76.1370882 C80.0368927,76.2706026 79.9966217,76.4435516 79.8721474,76.5235476 L57.3951265,90.9605654 C57.3532864,90.9870429 57.3072623,91 57.2617612,91" id="Fill-107" fill="#FFFFFF"></path>
                <path d="M60.2715171,92 C60.1803856,92 60.0908814,91.9562125 60.0398911,91.87688 C59.9617783,91.7558205 60.0019196,91.5971554 60.1293953,91.5229743 L81.5870776,79.0378832 C81.7156382,78.9637021 81.8816278,79.001823 81.9597405,79.1228824 C82.0383957,79.2439419 81.9982544,79.402607 81.8702363,79.4767881 L60.4130965,91.9618792 C60.3686156,91.9876365 60.3192527,92 60.2715171,92" id="Fill-109" fill="#FFFFFF"></path>
                <path d="M147.495,51.5 L147.505,51.5 L147.495,51.5 Z" id="Fill-111" fill="#FFFFFF"></path>
                <path d="M126.47613,74.3883004 L125.925,74.069505 C122.464685,74.0979107 118.807628,71.69029 118.779295,68.2852947 L118.721026,61.4027118 C118.692159,57.9977165 121.474631,55.2144892 124.934411,55.1860836 L138,55.0798254 C137.66482,55.0298525 137.323226,54.9972386 136.973078,55.0003948 L123.406056,55.1108612 C119.838826,55.1397929 116.970822,58.0092892 117.000224,61.5194906 L117.060097,68.6145898 C117.089498,72.1247912 120.005614,75.4087995 123.572844,75.3798678 L125.230032,75.3682951 L129.88147,80 L134.015973,75.5946804 L133.192328,73.3945918 L126.47613,74.3883004 Z" id="Fill-113" fill="#00A139"></path>
                <path d="M142.94322,61.0655114 C142.915712,57.6879563 140.16964,54.9725544 136.810101,55 L136.717717,55.001253 L124.03264,55.1066548 C120.673619,55.1348315 117.972701,57.8956293 118,61.2731843 L118.05678,68.1003016 C118.084807,71.4778567 120.830879,74.1932586 124.189899,74.1650819 L125.529459,74.1541242 L130.429934,79 L134.315229,75.0286465 L135.249962,74.0732466 L136.966841,74.0586364 C140.326381,74.0309815 143.027299,71.2701838 143,67.8921069 L142.94322,61.0655114 Z" id="Fill-115" fill="#00D65B"></path>
                <path d="M129.964391,70 C129.900079,70 129.859953,69.9688588 129.812131,69.9326124 C128.375835,68.8365434 126.975816,67.6541978 125.621421,66.5111616 L125.372419,66.3008307 C124.204363,65.3150323 122.8791,63.9580916 123.008823,62.1998886 C123.143493,60.3748086 124.721605,59 126.680092,59 L126.685039,59 C128.045481,59.0015315 129.295438,59.6994013 129.958345,60.7837286 C130.6229,59.7019539 131.873957,59.0071472 133.23275,59.0071472 L133.237147,59.0071472 C134.743802,59.0086787 136.145469,59.8780805 136.724276,61.1706966 C136.920509,61.6092263 137.012854,62.066645 136.998563,62.5286583 C136.946893,64.1852694 135.620531,65.4477654 134.381567,66.5009514 L134.198526,66.6576786 C130.905982,69.4751938 130.229883,70 129.964391,70" id="Fill-117" fill="#FFFFFF"></path>
                <path d="M147.732247,92.7395234 L146.023936,92.7535647 C141.739823,92.787888 138.237306,89.4304442 138.202094,85.2539214 L138.130603,77.8530877 C138.071383,70.9031375 141.56323,70.2629557 145.823869,70.2281124 L162,70.0975798 C161.584926,70.0362138 161.162384,69.9972101 160.728637,70.0003304 L143.931496,70.1360635 C139.514537,70.1714269 135.963471,73.6911263 136.000284,77.9961015 L136.073909,85.6585205 C136.110721,89.9634956 139.720474,93.9918041 144.137966,93.9559207 L146.188792,93.9418793 L152.768081,101 L159.609219,91.7000468 L154.212547,98.9333437 L147.732247,92.7395234 Z" id="Fill-119" fill="#5F5F5F"></path>
                <path d="M168.929708,76.5302136 C168.895471,72.3079352 165.489869,69.9651078 161.324296,70.0003929 L161.209652,70.0009118 L145.481115,70.1332309 C141.338367,70.1679971 137.94314,70.8155827 138.000722,77.8414705 L138.070234,85.3374806 C138.104472,89.559759 141.510074,92.9538751 145.675646,92.9191089 L147.336688,92.9050986 L153.412821,100 L158.230464,93.9984181 L159.389354,92.8039134 L161.518828,92.7862708 C165.684919,92.7509857 169.033977,89.2997907 169,85.0780312 L168.929708,76.5302136 Z" id="Fill-121" fill="#CED7DB"></path>
                <g id="Group-125" transform="translate(26.000000, 0.000000)">
                    <mask id="mask-8" fill="white">
                        <use xlink:href="#path-7"></use>
                    </mask>
                    <g id="Clip-124"></g>
                    <path d="M22.2528707,45.0391903 L19.0678707,45.0647743 C11.0787402,45.1300398 4.548425,38.8332257 4.48238152,31.0013673 L4.34869674,15.1710929 C4.28212065,7.33923451 9.59580972,2.42325745 17.5849402,2.35851408 L16.306438,1.3974695 C8.07017717,1.46430136 0.307794565,7.36638496 0.376501087,15.4399867 L0.514446739,31.758969 C0.582088043,39.8330929 7.31426196,47.3871814 15.5505228,47.3198274 L19.3762511,47.2931991 L31.6438272,58.5799513 L43.145512,47.0665973 L33.9058163,56.2752965 L22.2528707,45.0391903 Z" id="Fill-123" fill="#00A03F" mask="url(#mask-8)"></path>
                </g>
                <path d="M45.3182216,47.7233538 L57.1386111,59 L59,57.0681694 L47.9093537,45.9779141 L44.9194266,46.0031874 C44.8795471,46.003714 44.8391496,46.003714 44.7992701,46.003714 C36.9544014,46.003714 30.5400158,39.5500625 30.4747584,31.5600029 L30.3447616,15.5962061 C30.3131687,11.7062186 31.7736909,8.03631977 34.457012,5.26309777 C36.4188766,3.23491262 40.331995,2.60340088 42.9997787,2 C32.3122391,8.66387262 26.9789795,13.2849245 27,15.8631557 L27.1342023,32.3203091 C27.2015313,40.5673143 33.8536403,47.7512598 41.3950104,47.7512598 C41.428157,47.7512598 41.4618215,47.7512598 41.4949681,47.7507332 L45.3182216,47.7233538 Z" id="Fill-126" fill="#00A139"></path>
                <path d="M89.8620964,15.4052536 C89.7942127,7.38336672 83.0936529,0.933744208 74.8958788,1 L74.7660376,1.00157361 L43.720524,1.25328429 C35.5232886,1.31952395 28.932636,7.87671966 29,15.8986066 L29.1379036,32.1130138 C29.2057873,40.1349007 35.9063471,46.5845232 44.1035824,46.5177536 L47.3717014,46.4917877 L59.3289437,58 L68.8084281,48.5685333 L71.0889998,46.2988978 L75.279476,46.2649831 C83.4767114,46.1987435 90.067364,39.6415477 90,31.6196608 L89.8620964,15.4052536 Z" id="Fill-128" fill="#00D65B"></path>
                <path d="M49.6856085,25.9475664 C48.8859519,27.7070149 46.8116731,28.4849957 45.0522314,27.6858286 C43.2927898,26.8861689 42.5148121,24.8118821 43.3144687,23.0524336 C44.1136326,21.2929851 46.1884041,20.5150043 47.9478457,21.3141714 C49.7067947,22.1138311 50.4852651,24.1881179 49.6856085,25.9475664" id="Fill-130" fill="#FFFFFF"></path>
                <path d="M45.9926595,28 C45.4403232,28 44.8790443,27.8852878 44.3440671,27.6416559 C42.3372452,26.7292203 41.4456166,24.3528886 42.3582866,22.3448989 C43.2704306,20.3369091 45.6460027,19.4455216 47.6533506,20.3584834 C48.6254625,20.7999675 49.3676972,21.5945337 49.7427599,22.5953714 C50.1183486,23.5951566 50.0815262,24.6822916 49.6396571,25.6547143 C48.9705411,27.128082 47.5134254,28 45.9926595,28" id="Fill-132" fill="#FFFFFF"></path>
                <path d="M62.6856261,24.9475664 C61.8859906,26.7070149 59.8117666,27.4849957 58.0523714,26.6858286 C56.2929762,25.8861689 55.515019,23.8118821 56.3141619,22.0524336 C57.1137974,20.2929851 59.1880214,19.5150043 60.9474166,20.3141714 C62.7068118,21.1138311 63.4852617,23.1881179 62.6856261,24.9475664" id="Fill-134" fill="#FFFFFF"></path>
                <path d="M60.9969981,28 C60.4341344,28 59.8723227,27.8795702 59.3441776,27.6397623 C57.3368055,26.7278613 56.4456922,24.3529219 57.3583731,22.3461086 C57.8002475,21.3737297 58.5940432,20.6316926 59.5945731,20.2567298 C60.5945768,19.8817671 61.6813774,19.9185797 62.6529749,20.360331 C63.6261506,20.8020824 64.3678683,21.596183 64.7434615,22.5959084 C65.1180027,23.5956338 65.0817058,24.6816059 64.6393054,25.6539848 C64.1974311,26.6263636 63.4031093,27.3678748 62.4031055,27.7433635 C61.946502,27.9148051 61.470961,28 60.9969981,28" id="Fill-136" fill="#FFFFFF"></path>
                <path d="M77.6856085,24.9477658 C76.8859519,26.7072098 74.8116731,27.4851886 73.0522314,26.6855309 C71.2927898,25.8863659 70.5148121,23.8115917 71.3144687,22.0526403 C72.1136326,20.2931963 74.1884041,19.5147249 75.9478457,20.3143826 C77.7067947,21.1140403 78.4852651,23.1883218 77.6856085,24.9477658" id="Fill-138" fill="#FFFFFF"></path>
                <path d="M73.9953969,28 C73.4430508,28 72.8817619,27.8852866 72.3467753,27.6416522 C71.3746461,27.1996374 70.6323981,26.4055892 70.2568028,25.4047413 C69.8817335,24.4044195 69.9185566,23.3177996 70.3604334,22.3448407 C71.2731196,20.3373565 73.6487339,19.4454337 75.6561175,20.3584049 C77.6629751,21.2708498 78.5540934,23.647206 77.6419333,25.6552164 C76.9728054,27.1280731 75.5167159,28 73.9953969,28" id="Fill-140" fill="#FFFFFF"></path>
                <path d="M86.8297274,49.3102079 L85.2529604,49.3231786 C81.2982129,49.3553458 78.0656049,46.2055548 78.0331374,42.287383 L78.9490489,34.5018842 C78.9165814,30.5837123 81.1133578,27.2466253 85.0686289,27.2144581 L100,27.0914964 C99.6166744,27.0339067 99.2270647,26.9970701 98.826458,27 L83.3211458,27.1278142 C79.2443835,27.1610191 75.9667399,30.4628259 76.0002547,34.5018842 L76.0688554,42.6666446 C76.1023702,46.7057028 79.434999,50.4848294 83.512285,50.4516245 L85.405348,50.438135 L91.7994226,57 L97.172188,50.325031 L97.172188,50.3245122 L92.5984639,54.9316846 L86.8297274,49.3102079 Z" id="Fill-142" fill="#606060"></path>
                <path d="M92.417542,56 L86.3343203,50.1650996 L84.8148491,50.1776343 C82.7654044,50.2016591 80.8269712,49.4297308 79.3640733,48.0268895 C77.9006417,46.6240483 77.0856671,44.7490668 77.0685884,42.7482162 L77,34.6805732 C76.9831949,32.6797226 77.7661468,30.7922064 79.2055616,29.3653403 C80.6444426,27.9384742 82.5668644,27.144088 84.6195114,27.127375 L100.185151,27.0015058 C102.237798,26.960768 104.173029,27.7483647 105.635927,29.1517282 C107.098825,30.5550918 107.913799,32.4300732 107.930878,34.4309239 L107.930878,34.4309239 L108,42.4980446 C108.016805,44.4994175 107.23332,46.3869336 105.794439,47.8137997 C104.355558,49.2406658 102.433136,50.0350521 100.381022,50.051765 L98.4014937,50.0674334 L92.417542,56 Z" id="Fill-148" fill="#CED7DB"></path>
                <path d="M66.8297318,60.2354899 L65.2529653,60.2484171 C61.2982191,60.2804766 58.0656121,57.1412344 58.032621,53.2356677 L57.9666387,45.3428342 C57.9336476,41.4377845 61.113364,38.2457993 65.0681102,38.2132228 L80,38.09119 C79.6166745,38.0337932 79.2265413,37.9970799 78.8264584,38 L63.3211514,38.1268691 C59.2443904,38.1604798 55.9662242,41.4507117 56.0002627,45.47676 L56.0683396,53.6136591 C56.1023781,57.6397074 59.4344821,61.4061775 63.5117668,61.3725668 L65.4053529,61.3596396 L71.1304348,67 L75.826087,61.3725668 L66.8297318,60.2354899 Z" id="Fill-150" fill="#CED7DB"></path>
                <path d="M87.9324865,45.0762409 C87.8993892,41.1356866 84.6035389,37.9673808 80.5720745,38 L80.4615723,38.0007753 L65.2400182,38.1244394 C61.20802,38.1567904 57.967154,41.3783187 58,45.3183513 L58.0680473,53.283468 C58.1011446,57.2240224 61.3969949,60.3923282 65.4284593,60.3599773 L67.0352797,60.3469325 L72.9159222,66 L77.5692955,61.3753796 L78.6999419,60.2519668 L80.7605156,60.2352696 C84.79198,60.2029186 88.032846,56.981912 88,53.0413577 L87.9324865,45.0762409 Z" id="Fill-152" fill="#B3AEA9"></path>
                <path d="M149.626246,49.007979 C147.524917,49.3321244 146.166667,50.7314353 146.166667,52.8453622 C146.166667,57.7643939 144,57.5818751 144,58.374286 C144,59.6753559 147.250277,60 150.5,60 C153.750277,60 157,59.6753559 157,58.374286 C157,57.5818751 154.833333,57.7643939 154.833333,52.8453622 C154.833333,50.7314353 153.453488,49.3076888 151.322259,49" id="Stroke-154" stroke="#FFFFFF" stroke-width="2"></path>
                <path d="M150.875345,59.5664 C150.955382,59.7792 151,60.0138667 151,60.2613333 C151,61.2218667 150.328887,62 149.5,62 C148.671573,62 148,61.2218667 148,60.2613333 C148,60.0304 148.038638,59.8106667 148.109016,59.6090667 L150.875345,59.5664 Z M149.5,46 C149.00322,46 148.600276,46.4672 148.600276,47.0437333 C148.600276,47.6202667 149.00322,48.0874667 149.5,48.0874667 C149.99724,48.0874667 150.400184,47.6202667 150.400184,47.0437333 C150.400184,46.4672 149.99724,46 149.5,46 Z" id="Stroke-156" stroke="#FFFFFF" stroke-width="2"></path>
                <path d="M70.7605647,44.0079205 C68.9825463,44.3321333 67.8335814,45.7314228 67.8335814,47.8451421 C67.8335814,52.7643049 66,52.5816052 66,53.3741839 C66,54.6747312 68.749876,55 71.499752,55 C74.250124,55 77,54.6747312 77,53.3741839 C77,52.5816052 75.1664186,52.7643049 75.1664186,47.8451421 C75.1664186,45.7314228 73.9986019,44.3078437 72.1957786,44" id="Fill-158" fill="#FFFFFF"></path>
                <path d="M72.8757915,53.7181279 C72.9561617,53.9177255 73,54.1379712 73,54.369335 C73,55.2699068 72.3287871,56 71.5002435,56 C70.6717,56 70,55.2699068 70,54.369335 C70,54.1533249 70.0389674,53.9468446 70.1095957,53.7578357 M71.5002435,41 C71.0029226,41 70.6000974,41.4378441 70.6000974,41.978399 C70.6000974,42.5184244 71.0029226,42.9562685 71.5002435,42.9562685 C71.9970774,42.9562685 72.4003897,42.5184244 72.4003897,41.978399 C72.4003897,41.4378441 71.9970774,41 71.5002435,41" id="Fill-160" fill="#FFFFFF"></path>
                <path d="M91.5,30 C88.4619292,30 86,32.4625735 86,35.5 C86,38.5374265 88.4619292,41 91.5,41 C94.5375582,41 97,38.5374265 97,35.5 C97,32.4625735 94.5375582,30 91.5,30 Z" id="Stroke-162" stroke="#FFFFFF" stroke-width="2" stroke-linecap="round"></path>
                <line x1="95" y1="40" x2="100" y2="45" id="Stroke-164" stroke="#FFFFFF" stroke-width="4"></line>
                <path d="M150.5,75 C147.461929,75 145,77.4625735 145,80.5 C145,83.5374265 147.461929,86 150.5,86 C153.537558,86 156,83.5374265 156,80.5 C156,77.4625735 153.537558,75 150.5,75" id="Fill-166" fill="#FFFFFF"></path>
                <path d="M150.5,75 C147.461929,75 145,77.4625735 145,80.5 C145,83.5374265 147.461929,86 150.5,86 C153.537558,86 156,83.5374265 156,80.5 C156,77.4625735 153.537558,75 150.5,75 Z" id="Stroke-168" stroke="#FFFFFF"></path>
                <line x1="155" y1="84" x2="161" y2="89" id="Stroke-170" stroke="#FFFFFF" stroke-width="4"></line>
            </g>
        </g>
    </g>
</svg>