<?xml version="1.0" encoding="UTF-8"?>
<svg width="133px" height="133px" viewBox="0 0 133 133" version="1.1" xmlns="http://www.w3.org/2000/svg" xmlns:xlink="http://www.w3.org/1999/xlink">
    <title>DD70A7F3-56DA-487E-AD14-B0BCBE62BA51</title>
    <g id="Android-" stroke="none" stroke-width="1" fill="none" fill-rule="evenodd">
        <g id="1.5-Log-in" transform="translate(-114.000000, -227.000000)">
            <g id="Group" transform="translate(114.000000, 227.000000)">
                <circle id="Oval" fill="#BFBDBD" cx="66.5" cy="66.5" r="66.5"></circle>
                <g id="icons8-user" transform="translate(32.000000, 31.000000)" fill="#FEFEFE" fill-rule="nonzero">
                    <path d="M35,0 C26.4089039,0 19.4444444,6.96445945 19.4444444,15.5555556 C19.4444444,24.1466517 26.4089039,31.1111111 35,31.1111111 C43.5910961,31.1111111 50.5555556,24.1466517 50.5555556,15.5555556 C50.5555556,6.96445945 43.5910961,0 35,0 Z M35,42.7777778 C23.3177778,42.7777778 0,48.6422222 0,60.2777778 L0,66.1111111 C0,68.2577778 1.74222222,70 3.88888889,70 L66.1111111,70 C68.2577778,70 70,68.2577778 70,66.1111111 L70,60.2777778 C70,48.6422222 46.6822222,42.7777778 35,42.7777778 Z" id="Shape"></path>
                </g>
            </g>
        </g>
    </g>
</svg>